<svg width="219" height="61" viewBox="0 0 219 61" fill="none" xmlns="http://www.w3.org/2000/svg">
<g clip-path="url(#clip0_86_321)">
<path d="M217.088 28.5967H169.527V23.1356C169.527 20.8086 167.642 18.9255 165.314 18.9255H150.559C150.196 18.9255 149.846 18.9927 149.509 19.0734V15.7645C149.509 9.07938 144.084 3.65865 137.393 3.65865H35.9032V2.36736C35.9032 1.06262 34.8397 0 33.5339 0C32.2281 0 31.1646 1.06262 31.1646 2.36736V22.0461H6.58292C5.92329 22.0461 5.30403 22.2075 4.73863 22.49V19.5308C4.73863 18.226 3.67513 17.1634 2.36931 17.1634C1.0635 17.1634 0 18.226 0 19.5308V41.4827C0 42.7874 1.0635 43.8501 2.36931 43.8501C3.67513 43.8501 4.73863 42.7874 4.73863 41.4827V38.5235C5.30403 38.7925 5.92329 38.9674 6.58292 38.9674H31.1646V58.6461C31.1646 59.9508 32.2281 61.0135 33.5339 61.0135C34.8397 61.0135 35.9032 59.9508 35.9032 58.6461V57.3548H137.393C144.084 57.3548 149.509 51.9341 149.509 45.249V41.94C149.846 42.0342 150.196 42.088 150.559 42.088H165.314C167.642 42.088 169.527 40.2049 169.527 37.8778V32.4168H217.088C218.138 32.4168 219 31.5693 219 30.5067C219 29.4441 218.152 28.5967 217.088 28.5967Z" fill="url(#paint0_linear_86_321)"/>
<path d="M74.8446 30.2919V41H70.1814V30.4991C70.1814 26.2159 68.0743 23.9361 64.4474 23.9361C62.2367 23.9361 60.3023 24.696 58.5407 25.6287L56.9517 22.1744C59.8533 20.551 62.6166 19.9983 65.2419 19.9983C70.7686 19.9983 74.8446 23.1071 74.8446 30.2919ZM84.5514 20.2746V41H79.7154V20.2746H84.5514ZM101.066 24.3851C94.9868 24.3851 93.6052 28.5648 98.2684 41H93.1216C89.771 31.4663 90.2545 26.1468 94.3651 24.3851H88.5965V20.2746H101.066V24.3851ZM113.934 20.2746C121.119 20.2746 124.469 23.3489 124.469 30.361V41H119.633V30.361C119.633 26.3541 117.872 24.3851 113.934 24.3851H109.512V41H104.676V20.2746H113.934Z" fill="white"/>
</g>
<defs>
<linearGradient id="paint0_linear_86_321" x1="0" y1="30.5067" x2="219" y2="30.5067" gradientUnits="userSpaceOnUse">
<stop offset="0.43" stop-color="#EA606C"/>
<stop offset="1" stop-color="#D81F2B"/>
</linearGradient>
<clipPath id="clip0_86_321">
<rect width="219" height="61" fill="white"/>
</clipPath>
</defs>
</svg>
