<svg width="219" height="61" viewBox="0 0 219 61" fill="none" xmlns="http://www.w3.org/2000/svg">
<g clip-path="url(#clip0_86_324)">
<path d="M1.9116 28.5904H49.4729V23.1305C49.4729 20.804 51.3576 18.9213 53.6865 18.9213H68.4409C68.8043 18.9213 69.1543 18.9885 69.4909 19.0692V15.761C69.4909 9.07738 74.9161 3.65785 81.6067 3.65785H183.097V2.36684C183.097 1.06239 184.16 0 185.466 0C186.772 0 187.835 1.06239 187.835 2.36684V22.0412H212.417C213.077 22.0412 213.696 22.2026 214.261 22.485V19.5265C214.261 18.222 215.325 17.1596 216.631 17.1596C217.937 17.1596 219 18.222 219 19.5265V41.4735C219 42.778 217.937 43.8404 216.631 43.8404C215.325 43.8404 214.261 42.778 214.261 41.4735V38.515C213.696 38.7839 213.077 38.9588 212.417 38.9588H187.835V58.6332C187.835 59.9376 186.772 61 185.466 61C184.16 61 183.097 59.9376 183.097 58.6332V57.3421H81.6067C74.9161 57.3421 69.4909 51.9226 69.4909 45.239V41.9308C69.1543 42.0249 68.8043 42.0787 68.4409 42.0787H53.6865C51.3576 42.0787 49.4729 40.196 49.4729 37.8695V32.4096H1.9116C0.861568 32.4096 1.66781e-06 31.5624 1.66781e-06 30.5C1.66781e-06 29.4376 0.848106 28.5904 1.9116 28.5904Z" fill="url(#paint0_linear_86_324)"/>
<path d="M1.9116 28.5904H49.4729V23.1305C49.4729 20.804 51.3576 18.9213 53.6865 18.9213H68.4409C68.8043 18.9213 69.1543 18.9885 69.4909 19.0692V15.761C69.4909 9.07738 74.9161 3.65785 81.6067 3.65785H183.097V2.36684C183.097 1.06239 184.16 0 185.466 0C186.772 0 187.835 1.06239 187.835 2.36684V22.0412H212.417C213.077 22.0412 213.696 22.2026 214.261 22.485V19.5265C214.261 18.222 215.325 17.1596 216.631 17.1596C217.937 17.1596 219 18.222 219 19.5265V41.4735C219 42.778 217.937 43.8404 216.631 43.8404C215.325 43.8404 214.261 42.778 214.261 41.4735V38.515C213.696 38.7839 213.077 38.9588 212.417 38.9588H187.835V58.6332C187.835 59.9376 186.772 61 185.466 61C184.16 61 183.097 59.9376 183.097 58.6332V57.3421H81.6067C74.9161 57.3421 69.4909 51.9226 69.4909 45.239V41.9308C69.1543 42.0249 68.8043 42.0787 68.4409 42.0787H53.6865C51.3576 42.0787 49.4729 40.196 49.4729 37.8695V32.4096H1.9116C0.861568 32.4096 1.66781e-06 31.5624 1.66781e-06 30.5C1.66781e-06 29.4376 0.848106 28.5904 1.9116 28.5904Z" fill="url(#paint1_linear_86_324)"/>
<path d="M110.237 33.8497L115.522 40.7927V41H110.168L102.258 30.6373C100.185 32.0535 99.2179 35.0242 99.3906 41H94.5547C94.382 33.0207 96.1436 29.3247 99.8051 27.4249L94.5201 20.4819V20.2746H99.8742L107.784 30.6373C109.857 29.2211 110.824 26.2159 110.651 20.2746H115.487C115.66 28.2539 113.898 31.9154 110.237 33.8497ZM136.178 36.8895H138.803V41H118.907V36.8895H131.342V30.4301C131.342 26.4922 129.546 23.9706 125.988 23.9706C123.743 23.9706 121.705 24.7997 119.943 25.7668L118.354 22.1744C121.049 20.62 123.916 19.8601 126.748 19.8601C133.38 19.8601 136.178 23.5216 136.178 30.0846V36.8895ZM142.068 20.2746H150.703C158.026 20.2746 161.343 23.5907 161.343 31.1554V41H156.507V31.1554C156.507 26.3886 154.814 24.3851 150.703 24.3851H142.068V20.2746ZM142.241 30.1537L147.077 29.4974V41H142.241V30.1537Z" fill="white"/>
</g>
<defs>
<linearGradient id="paint0_linear_86_324" x1="219" y1="30.5" x2="0" y2="30.5" gradientUnits="userSpaceOnUse">
<stop offset="0.43" stop-color="#D81F2B"/>
<stop offset="1" stop-color="#DB4B58"/>
</linearGradient>
<linearGradient id="paint1_linear_86_324" x1="219" y1="30.5" x2="0" y2="30.5" gradientUnits="userSpaceOnUse">
<stop offset="0.43" stop-color="#D81F2B"/>
<stop offset="1" stop-color="#DB4B58"/>
</linearGradient>
<clipPath id="clip0_86_324">
<rect width="219" height="61" fill="white" transform="matrix(-1 0 0 1 219 0)"/>
</clipPath>
</defs>
</svg>
