<?xml version="1.0" encoding="UTF-8"?>
<svg id="Layer_2" data-name="Layer 2" xmlns="http://www.w3.org/2000/svg" xmlns:xlink="http://www.w3.org/1999/xlink" viewBox="0 0 109.49 455.68">
  <defs>
    <style>
      .cls-1 {
        fill: #bbbbba;
      }

      .cls-2 {
        fill: #818285;
      }

      .cls-3 {
        fill: #d81f2b;
      }

      .cls-4 {
        fill: #231f20;
      }

      .cls-5 {
        fill: url(#linear-gradient);
      }

      .cls-6 {
        fill: #fff;
      }

      .cls-7, .cls-8 {
        fill: #91918e;
      }

      .cls-9 {
        fill: #bcbcbc;
      }

      .cls-8 {
        stroke: #7f7f79;
        stroke-miterlimit: 10;
      }

      .cls-10 {
        fill: #d1d1d1;
      }

      .cls-11 {
        clip-path: url(#clippath);
      }
    </style>
    <linearGradient id="linear-gradient" x1="68.87" y1="406.03" x2="68.87" y2="0" gradientUnits="userSpaceOnUse">
      <stop offset="0" stop-color="#b8babc"/>
      <stop offset="1" stop-color="#818285"/>
    </linearGradient>
    <clipPath id="clippath">
      <rect class="cls-7" x="55.45" y="404.72" width="26.3" height="42.5" rx="5.36" ry="5.36"/>
    </clipPath>
  </defs>
  <g id="SNAKE">
    <g id="sword">
      <polygon class="cls-5" points="68.87 0 55.04 13.83 55.04 406.03 82.69 406.03 82.69 13.83 68.87 0"/>
      <rect class="cls-1" x="68.08" y="2.68" width="1.57" height="371.34" rx=".78" ry=".78"/>
    </g>
    <g>
      <rect class="cls-7" x="55.45" y="404.72" width="26.3" height="42.5" rx="5.36" ry="5.36"/>
      <g class="cls-11">
        <path class="cls-8" d="M82.74,407.19c-6.16-.59-24.98,5.77-27.98,11.74-1.25,2.48-2.37,9.19-.59,7.03,3.72-4.49,26.7-15.35,31.08-10.75,1.51,1.58,1.73,5.96-1.35,6.36-6.07.78-25.04,5.75-29.15,12.91-1.51,2.63-2.61,6.83-.2,5.18,10.17-6.95,31.36-11.67,31.76-10.47.11.33,7.56,8.32-1.07,9-9.83.78-22.48,3.82-33.31,10.57"/>
      </g>
    </g>
    <g id="head">
      <path class="cls-10" d="M31.11,19.3L.1,23.67c-.1,0-.13-.13-.04-.17l8.4-3.39c.08-.03.07-.14-.01-.17l-6.38-1.71c-.1-.03-.08-.17.02-.17l28.07-1.76s.08.02.09.06l1.25,4.23c.02.05-.33-1.3-.38-1.29Z"/>
      <path class="cls-9" d="M17.66,18.97l-7.39.54c-.67.05-1.16.24-1.1.43h0c.06.19.64.3,1.31.25l7.39-.54c.67-.05,1.16-.24,1.1-.43h0c-.06-.19-.64-.3-1.31-.25Z"/>
      <path class="cls-10" d="M82.69,41.13c6.81.85,24.73-.03,26.62-6.62s-13.32-17.85-19.91-20.68c-14.66-6.29-44.51-7.83-56.35-7.88-10.17-.04-23.48,7.88-23.48,7.88,0,0,15.39,11.31,21.13,14,12.15,5.7,38.68,11.64,51.99,13.3Z"/>
      <circle class="cls-4" cx="31.78" cy="13.6" r="3.25"/>
      <circle class="cls-6" cx="30.63" cy="12.15" r=".86"/>
    </g>
    <path class="cls-3" d="M93.64,455.68s-41.64-26.35-49.3-40.3c-1.99-3.63-5.09-10.57-1.96-16.43,1.75-3.28,12.66-7.83,12.66-7.83l.25,18.39,38.35,46.17Z"/>
    <rect class="cls-2" x="50.38" y="396.41" width="36.98" height="14.91" rx="5.16" ry="5.16"/>
    <g id="buttons">
      <g id="one">
        <path class="cls-3" d="M82.96,396.26c4.19-.15,10.95,2.35,14.4-8.61,2.94-9.33-3.99-12.79-7.2-15.65-7.43-6.61-34.85-19.17-34.85-19.17v-9.78s-11.77,8.7-14,12.91-2.19,14.91,0,19.17c5.33,10.39,29.98,21.53,41.65,21.13Z"/>
        <g>
          <path class="cls-6" d="M59.36,378.68l-.02.05-1.37-.55-.95-3.46c-.68.15-1.23.81-1.8,2.35l-1.23-.5c.78-2.05,1.61-2.82,2.74-2.92l-.63-2.32.02-.05,1.37.55.95,3.46c.67-.15,1.23-.81,1.8-2.35l1.23.5c-.78,2.05-1.61,2.81-2.74,2.92l.63,2.32Z"/>
          <path class="cls-6" d="M61.67,379.67l-1.23-.5,2.14-5.29,1.23.5-2.14,5.29Z"/>
          <path class="cls-6" d="M68.27,381.12l-.42,1.05-5.08-2.05.42-1.05,3.17,1.28.67-1.65c.41-1,.21-1.83-.7-2.2-.57-.23-1.18-.23-1.73-.17l-.04-1.08c.85-.12,1.66-.02,2.38.27,1.69.68,2.03,1.91,1.35,3.58l-.7,1.74.67.27Z"/>
          <path class="cls-6" d="M75.27,382.06c-.9,2.22-2.67,2.69-4.37,1.1l.68-.89c1.07,1.07,1.96.75,2.54-.68.41-1.01.12-1.83-.58-2.11-.71-.29-1.41.14-2.26,1.26l-1.63,2.15-1.22-.49,1.66-2.16.18-3.25,1.21.49-.14,1.56c.75-.75,1.68-1.02,2.57-.66,1.47.59,1.99,2.1,1.35,3.68Z"/>
        </g>
      </g>
      <g id="two">
        <path class="cls-10" d="M82.74,354.03c4.19-.15,10.95,2.35,14.4-8.61,2.94-9.33-3.99-12.79-7.2-15.65-7.43-6.61-34.85-19.17-34.85-19.17v-9.78s-11.77,8.7-14,12.91-2.19,14.91,0,19.17c5.33,10.39,29.98,21.53,41.65,21.13Z"/>
        <g>
          <path class="cls-6" d="M54.08,321.16l-1.09,2.7-1.23-.5,1.09-2.7c.42-1.05.21-1.71-.84-2.13l-.88-.36-1.19,2.93c-.38.94-1.1,1.13-1.82.84-.35-.14-.84-.41-1.06-.61l.55-.91c.13.11.29.22.53.32.33.13.52,0,.72-.49l1.04-2.57-.68-.28.42-1.05,2.79,1.13c1.9.77,2.38,1.82,1.63,3.67Z"/>
          <path class="cls-6" d="M55.44,324.85l-1.23-.5,2.14-5.29,1.23.5-2.14,5.29Z"/>
          <path class="cls-6" d="M60.04,320.55l-1.21,2.99-1.31-.3,1.29-3.18,1.23.5Z"/>
          <path class="cls-6" d="M63.65,328.05l-.04.1-4.67-1.89.42-1.05,2.64,1.07-1.32-5.42v-.04s1.37.55,1.37.55l.73,3.05c.66-.1,1.19-.71,1.69-2.08l1.19.48c-.67,1.82-1.49,2.62-2.62,2.68l.6,2.54Z"/>
          <path class="cls-6" d="M65.32,330.47l-1.2-.48,1.75-4.32,1.26.33-1.81,4.47ZM71.78,325.3l-1.22,3.02c-.73,1.82-1.82,1.97-2.87,1.55-.4-.16-.71-.34-1.01-.58l.55-.96c.21.17.44.32.7.43.63.25,1.03.1,1.48-1.02l.75-1.86-3.81-1.54.42-1.05,5,2.02Z"/>
          <path class="cls-6" d="M74.21,326.28l-1.21,2.99-1.31-.3,1.29-3.18,1.23.5Z"/>
          <path class="cls-6" d="M80.07,328.65l-.42,1.05c-.78-.32-1.32,0-1.69.9l-1.16,2.88-1.23-.5,1.15-2.84c.28-.7.68-1.04,1.14-1.17l-3.14-1.27.42-1.05,4.94,1.99Z"/>
          <path class="cls-6" d="M79.03,333.16l1.22.49.95-2.35c.24-.59.19-.9-.29-1.09l-.42-.17.42-1.05.8.32c1.06.43,1.28,1.1.85,2.15l-1.51,3.74-2.45-.99.42-1.05Z"/>
          <path class="cls-6" d="M85.6,330.88l-1.21,2.99-1.31-.3,1.29-3.18,1.23.5Z"/>
          <path class="cls-6" d="M89.66,338.61l-.02.05-1.37-.55-.95-3.46c-.68.15-1.23.81-1.8,2.35l-1.23-.5c.78-2.05,1.61-2.82,2.74-2.92l-.63-2.32.02-.05,1.37.55.95,3.46c.67-.15,1.23-.81,1.8-2.35l1.23.5c-.78,2.05-1.61,2.81-2.74,2.92l.63,2.32Z"/>
          <path class="cls-6" d="M52.98,334.7l-1.18,2.92-5.11-2.07,2.14-5.29,2.55,1.03c1.78.72,2.29,1.72,1.61,3.41ZM50.99,336.06l.71-1.76c.41-1.01.15-1.6-.77-1.97l-1.3-.52-1.29,3.19,2.64,1.07Z"/>
          <path class="cls-6" d="M59.4,334.53l-.42,1.05c-.78-.32-1.32,0-1.69.9l-1.16,2.88-1.23-.5,1.15-2.84c.28-.7.68-1.04,1.14-1.17l-3.14-1.27.42-1.05,4.94,1.99Z"/>
          <path class="cls-6" d="M61.58,343.19l-1.23-.5,2.7-6.69,1.23.5-2.7,6.69Z"/>
          <path class="cls-6" d="M69.99,341.83l-1.09,2.7-1.23-.5,1.09-2.7c.42-1.05.21-1.71-.84-2.13l-.88-.36-1.19,2.93c-.38.94-1.1,1.13-1.82.84-.35-.14-.84-.41-1.06-.61l.55-.91c.13.11.29.22.53.32.33.13.52,0,.72-.49l1.04-2.57-.68-.27.42-1.05,2.79,1.13c1.9.77,2.38,1.82,1.63,3.67Z"/>
          <path class="cls-6" d="M76.73,344.58c-.9,2.22-2.67,2.69-4.37,1.1l.68-.89c1.07,1.07,1.96.75,2.54-.68.41-1.01.12-1.83-.58-2.11-.71-.29-1.41.14-2.26,1.26l-1.63,2.15-1.22-.49,1.66-2.16.18-3.25,1.21.49-.14,1.56c.75-.75,1.68-1.02,2.57-.66,1.47.59,1.99,2.1,1.35,3.68Z"/>
          <path class="cls-6" d="M82.96,344.05l-.05.12-4,4.4-1.31-.53.02-.04,3.29-3.55-2.96-1.2.78-1.93,1.23.5-.36.88,3.36,1.36Z"/>
        </g>
      </g>
      <g id="three">
        <path class="cls-10" d="M82.69,309.23c4.19-.15,10.95,2.35,14.4-8.61,2.94-9.33-3.99-12.79-7.2-15.65-7.43-6.61-34.85-19.17-34.85-19.17v-9.78s-11.77,8.7-14,12.91-2.19,14.91,0,19.17c5.33,10.39,29.98,21.53,41.65,21.13Z"/>
        <g>
          <path class="cls-6" d="M48.75,281.68l-1.19,2.94-1.23-.5,1.12-2.77,1.3.33ZM50.62,279.7c1.87.75,2.37,1.94,1.59,3.87l-1.02,2.51-1.23-.5,1.01-2.51c.49-1.22.27-1.9-.78-2.33l-2.2-.89.42-1.05,2.2.89Z"/>
          <path class="cls-6" d="M53.08,288.47l-1.2-.48,1.74-4.32,1.26.33-1.81,4.47ZM59.54,283.3l-1.22,3.02c-.73,1.82-1.82,1.97-2.87,1.55-.4-.16-.71-.34-1.01-.58l.55-.97c.21.17.44.32.7.43.63.25,1.03.1,1.48-1.02l.75-1.86-3.81-1.54.42-1.05,5,2.02Z"/>
          <path class="cls-6" d="M61.98,284.29l-1.21,2.99-1.31-.3,1.29-3.18,1.23.5Z"/>
          <path class="cls-6" d="M67.43,289.37c-.74,1.82-2.12,2.51-3.84,1.82-1.71-.69-2.31-2.18-1.57-4.01l1-2.48,1.23.5-1,2.48c-.47,1.16-.2,2.07.76,2.46.97.39,1.74-.1,2.21-1.26.36-.88.3-1.62-.37-1.89-.36-.15-.58-.14-.89-.12l.07-1.05c.41-.05.88-.02,1.4.19,1.18.48,1.72,1.62,1.01,3.37Z"/>
          <path class="cls-6" d="M73.51,291.97c-.7,1.74-2.12,2.39-3.76,1.73-1.64-.66-2.19-2.12-1.49-3.85l1.05-2.6,2.62,1.06c1.7.69,2.26,1.97,1.58,3.66ZM72.27,291.47c.4-.99.18-1.73-.77-2.11l-1.38-.56-.63,1.55c-.43,1.08-.21,1.94.68,2.3.88.36,1.66-.11,2.1-1.18Z"/>
          <path class="cls-6" d="M76.75,290.26l-1.21,2.99-1.31-.3,1.29-3.18,1.23.5Z"/>
          <path class="cls-6" d="M79.59,293.16l-1.52,3.77-.94-.38.21-1.05-.03-.02c-.55.59-1.16.68-1.76.44l-.38-.15.47-1.16.38.15c.89.36,1.55,0,1.85-.75l.43-1.07c.2-.49.09-.8-.39-1l-.52-.21.42-1.05.76.31c1.09.44,1.43,1.15,1.02,2.17Z"/>
          <path class="cls-6" d="M80.53,297.93l-1.23-.5,2.14-5.29,1.23.5-2.14,5.29Z"/>
          <path class="cls-6" d="M88.25,294.9l-.05.12-4,4.4-1.31-.53.02-.04,3.29-3.55-2.96-1.2.78-1.93,1.23.5-.36.88,3.36,1.36Z"/>
        </g>
      </g>
      <g id="four">
        <path class="cls-10" d="M82.96,265.01c4.19-.15,10.95,2.35,14.4-8.61,2.94-9.33-3.99-12.79-7.2-15.65-7.43-6.61-34.85-19.17-34.85-19.17v-9.78s-11.77,8.7-14,12.91-2.19,14.91,0,19.17c5.33,10.39,29.98,21.53,41.65,21.13Z"/>
        <g>
          <path class="cls-6" d="M57.13,240.28l-1.19,2.94-1.23-.5,1.12-2.77,1.3.33ZM59.01,238.3c1.87.75,2.37,1.94,1.59,3.87l-1.02,2.51-1.23-.5,1.01-2.51c.49-1.22.27-1.9-.78-2.33l-2.2-.89.42-1.05,2.2.89Z"/>
          <path class="cls-6" d="M60.97,244.02l1.22.49.95-2.35c.24-.59.19-.9-.29-1.09l-.42-.17.42-1.05.8.32c1.06.43,1.28,1.1.85,2.15l-1.51,3.74-2.45-.99.42-1.05Z"/>
          <path class="cls-6" d="M69.46,245.6c-.67,1.66-2.14,2.31-3.77,1.65-.71-.29-1.21-.71-1.6-1.27l.72-.7c.29.34.63.7,1.12.9,1,.4,1.87-.04,2.29-1.07s.1-1.96-.9-2.37c-.49-.2-.98-.18-1.43-.12l-.04-1.02c.67-.14,1.33-.09,2.03.2,1.63.66,2.24,2.15,1.57,3.81Z"/>
          <path class="cls-6" d="M71.82,246.21l-1.19,2.94-1.23-.5,1.12-2.77,1.3.33ZM73.7,244.23c1.87.76,2.37,1.94,1.59,3.88l-1.01,2.51-1.23-.5,1.02-2.51c.49-1.22.27-1.9-.78-2.32l-2.2-.89.42-1.05,2.2.89Z"/>
          <path class="cls-6" d="M77.94,248.69l-1.19,2.94-1.23-.5,1.12-2.77,1.3.33ZM79.82,246.71c1.87.76,2.37,1.94,1.59,3.88l-1.01,2.51-1.23-.5,1.01-2.51c.49-1.22.27-1.9-.78-2.33l-2.2-.89.42-1.05,2.2.89Z"/>
        </g>
      </g>
      <g id="five">
        <path class="cls-10" d="M82.96,220.25c4.19-.15,10.95,2.35,14.4-8.61,2.94-9.33-3.99-12.79-7.2-15.65-7.43-6.61-34.85-19.17-34.85-19.17v-9.78s-11.77,8.7-14,12.91-2.19,14.91,0,19.17c5.33,10.39,29.98,21.53,41.65,21.13Z"/>
        <g>
          <path class="cls-6" d="M63,190.34l-1.09,2.7-1.23-.5,1.09-2.7c.42-1.05.21-1.71-.84-2.13l-.88-.36-1.19,2.93c-.38.94-1.1,1.13-1.82.84-.35-.14-.84-.41-1.06-.61l.55-.91c.13.11.29.22.53.32.33.13.52,0,.72-.49l1.04-2.57-.68-.27.42-1.05,2.79,1.13c1.9.77,2.38,1.82,1.63,3.67Z"/>
          <path class="cls-6" d="M64.37,194.03l-1.23-.5,2.14-5.29,1.23.5-2.14,5.29Z"/>
          <path class="cls-6" d="M70.97,195.48l-.42,1.05-5.08-2.05.42-1.05,3.17,1.28.67-1.65c.41-1,.21-1.83-.7-2.2-.57-.23-1.18-.23-1.73-.17l-.04-1.08c.85-.12,1.66-.02,2.38.28,1.69.68,2.03,1.91,1.35,3.58l-.7,1.74.67.27Z"/>
          <path class="cls-6" d="M72.64,197.37l-1.23-.5,2.14-5.29,1.23.5-2.14,5.29Z"/>
          <path class="cls-6" d="M77.89,195.11l-1.52,3.77-.94-.38.21-1.05-.03-.02c-.55.59-1.16.68-1.76.44l-.38-.15.47-1.16.38.15c.89.36,1.55,0,1.85-.75l.43-1.07c.2-.49.09-.8-.39-1l-.52-.21.42-1.05.76.31c1.09.44,1.43,1.15,1.02,2.18Z"/>
          <path class="cls-6" d="M84.16,198.89l-1.09,2.7-1.23-.5,1.09-2.7c.42-1.05.21-1.71-.84-2.13l-.88-.36-1.19,2.93c-.38.94-1.1,1.13-1.82.84-.35-.14-.84-.41-1.06-.61l.55-.91c.13.11.29.22.53.32.33.13.52,0,.72-.49l1.04-2.57-.68-.27.42-1.05,2.79,1.13c1.9.77,2.38,1.82,1.63,3.67Z"/>
          <path class="cls-6" d="M53.77,200.59l-1.18,2.92-5.11-2.07,2.14-5.29,2.55,1.03c1.78.72,2.29,1.72,1.61,3.41ZM51.78,201.96l.71-1.76c.41-1.01.15-1.6-.77-1.97l-1.3-.52-1.29,3.19,2.64,1.07Z"/>
          <path class="cls-6" d="M60.2,200.43l-.42,1.05c-.78-.32-1.32,0-1.69.9l-1.16,2.88-1.23-.5,1.15-2.84c.28-.7.68-1.04,1.14-1.17l-3.14-1.27.42-1.05,4.94,1.99Z"/>
          <path class="cls-6" d="M68.27,206.7l-1.09,2.7-1.23-.5,1.09-2.7c.42-1.05.21-1.71-.84-2.13l-.88-.36-1.19,2.93c-.38.94-1.1,1.13-1.82.84-.35-.14-.84-.41-1.06-.61l.55-.91c.13.11.29.22.53.32.33.13.52,0,.72-.49l1.04-2.57-.68-.27.42-1.05,2.79,1.13c1.9.77,2.38,1.82,1.63,3.67Z"/>
          <path class="cls-6" d="M68.56,208.74l1.22.49.95-2.35c.24-.59.19-.9-.29-1.09l-.42-.17.42-1.05.8.32c1.06.43,1.28,1.1.85,2.15l-1.51,3.74-2.45-.99.42-1.05Z"/>
          <path class="cls-6" d="M78.41,210.83c-.9,2.22-2.66,2.69-4.37,1.1l.68-.89c1.07,1.07,1.96.75,2.54-.68.41-1.01.12-1.83-.58-2.11-.71-.29-1.41.14-2.26,1.26l-1.63,2.15-1.22-.49,1.66-2.16.18-3.25,1.21.49-.14,1.56c.75-.75,1.68-1.02,2.57-.66,1.47.59,1.99,2.1,1.35,3.68Z"/>
          <path class="cls-6" d="M84.65,210.31l-.05.12-4,4.4-1.31-.53.02-.04,3.29-3.55-2.96-1.2.78-1.93,1.23.5-.36.88,3.36,1.36Z"/>
        </g>
      </g>
      <g id="six">
        <path class="cls-10" d="M82.69,175.48c4.19-.15,10.95,2.35,14.4-8.61,2.94-9.33-3.99-12.79-7.2-15.65-7.43-6.61-34.85-19.17-34.85-19.17v-9.78s-11.77,8.7-14,12.91-2.19,14.91,0,19.17c5.33,10.39,29.98,21.53,41.65,21.13Z"/>
        <g>
          <path class="cls-6" d="M60.28,152.46l-1.18,2.92-5.11-2.07,2.14-5.29,2.55,1.03c1.78.72,2.29,1.72,1.61,3.41ZM58.29,153.83l.71-1.76c.41-1.01.15-1.6-.77-1.97l-1.3-.52-1.29,3.19,2.64,1.07Z"/>
          <path class="cls-6" d="M63.48,150.99l-1.21,2.99-1.31-.3,1.29-3.18,1.23.5Z"/>
          <path class="cls-6" d="M68.72,156.1l-1.1,2.71-1.23-.5,1.1-2.71c.41-1.02.17-1.71-.84-2.11l-1.13-.46-1.71,4.24-1.23-.5,2.14-5.29,2.36.96c1.83.74,2.37,1.87,1.65,3.66Z"/>
          <path class="cls-6" d="M69.5,161.2l-1.2-.48,1.75-4.32,1.26.33-1.81,4.47ZM75.96,156.03l-1.22,3.02c-.73,1.82-1.82,1.97-2.87,1.55-.4-.16-.7-.34-1.01-.58l.55-.97c.21.17.44.32.7.43.63.25,1.03.1,1.48-1.02l.75-1.86-3.81-1.54.42-1.05,5,2.02Z"/>
          <path class="cls-6" d="M81.51,158.28l-.05.12-4,4.4-1.31-.53.02-.04,3.29-3.55-2.96-1.2.78-1.93,1.23.5-.36.88,3.36,1.36Z"/>
        </g>
      </g>
      <g id="seven">
        <path class="cls-10" d="M82.69,130.43c4.19-.15,10.95,2.35,14.4-8.61,2.94-9.33-3.99-12.79-7.2-15.65-7.43-6.61-34.85-19.17-34.85-19.17v-9.78s-11.77,8.7-14,12.91-2.19,14.91,0,19.17c5.33,10.39,29.98,21.53,41.65,21.13Z"/>
        <g>
          <path class="cls-6" d="M54.67,105.33l-1.18,2.92-5.11-2.07,2.14-5.29,2.55,1.03c1.78.72,2.29,1.72,1.61,3.41ZM52.68,106.7l.71-1.76c.41-1.01.15-1.6-.77-1.97l-1.3-.52-1.29,3.19,2.64,1.07Z"/>
          <path class="cls-6" d="M61.09,105.17l-.42,1.05c-.78-.32-1.32,0-1.69.9l-1.16,2.88-1.23-.5,1.15-2.84c.28-.7.68-1.04,1.14-1.17l-3.14-1.27.42-1.05,4.94,1.99Z"/>
          <path class="cls-6" d="M65.92,107.12l-1.21,2.99-1.31-.31,1.29-3.18,1.23.5Z"/>
          <path class="cls-6" d="M69.09,114.56l-1.19-.48,1.08-2.68c.44-1.09.14-1.89-.79-2.27-.56-.23-1.14-.23-1.68-.18l-.05-1.04c.91-.12,1.67.03,2.34.3,1.41.57,2.13,1.78,1.39,3.62l-1.1,2.73Z"/>
          <path class="cls-6" d="M74.67,116.7l-.04.1-4.67-1.89.42-1.05,2.64,1.07-1.32-5.42v-.04s1.37.55,1.37.55l.73,3.05c.66-.1,1.19-.71,1.69-2.08l1.19.48c-.67,1.82-1.49,2.62-2.62,2.68l.6,2.54Z"/>
          <path class="cls-6" d="M76.93,117.72l-1.23-.5,2.14-5.29,1.23.5-2.14,5.29Z"/>
          <path class="cls-6" d="M84.95,117.86c-.9,2.22-2.66,2.69-4.37,1.1l.68-.89c1.07,1.07,1.96.75,2.54-.68.41-1.01.12-1.83-.58-2.11-.71-.29-1.41.14-2.26,1.26l-1.63,2.15-1.22-.49,1.66-2.16.18-3.25,1.21.49-.14,1.56c.75-.75,1.68-1.02,2.57-.66,1.47.59,1.99,2.1,1.35,3.68Z"/>
        </g>
      </g>
      <g id="eight">
        <path class="cls-10" d="M82.69,87.25c4.19-.15,10.95,2.35,14.4-8.61,2.94-9.33-3.99-12.79-7.2-15.65-7.43-6.61-34.85-19.17-34.85-19.17v-9.78s-11.77,8.7-14,12.91-2.19,14.91,0,19.17c5.33,10.39,29.98,21.53,41.65,21.13Z"/>
        <g>
          <path class="cls-6" d="M58.08,68.05l-1.23-.5,2.7-6.69,1.23.5-2.7,6.69Z"/>
          <path class="cls-6" d="M66.08,66.5l-1.1,2.71-1.23-.5,1.1-2.71c.41-1.02.17-1.71-.84-2.11l-1.13-.46-1.71,4.24-1.23-.5,2.14-5.29,2.36.95c1.83.74,2.37,1.87,1.65,3.66Z"/>
          <path class="cls-6" d="M71.43,70.59l-.42,1.05-5.08-2.05.42-1.05,3.17,1.28.67-1.65c.41-1,.21-1.83-.7-2.2-.57-.23-1.18-.23-1.73-.17l-.04-1.08c.85-.12,1.66-.02,2.38.27,1.69.68,2.03,1.91,1.35,3.58l-.7,1.74.67.27Z"/>
          <path class="cls-6" d="M78.43,71.54c-.9,2.22-2.66,2.69-4.37,1.1l.68-.89c1.07,1.07,1.96.75,2.54-.68.41-1.01.12-1.83-.58-2.11-.71-.29-1.41.14-2.26,1.26l-1.63,2.15-1.22-.49,1.66-2.16.18-3.25,1.21.49-.14,1.56c.75-.75,1.68-1.02,2.57-.66,1.47.59,1.99,2.1,1.35,3.68Z"/>
        </g>
      </g>
    </g>
  </g>
</svg>