<svg version="1.1" width="1181" height="1890" xmlns="http://www.w3.org/2000/svg" xmlns:xlink="http://www.w3.org/1999/xlink" overflow="hidden"><defs><clipPath id="clip0"><rect x="0" y="0" width="1181" height="1890"/></clipPath></defs><g clip-path="url(#clip0)"><rect x="0" y="0" width="1181" height="1890.28" fill="#FFFFFF"/><text font-family="calibri,calibri_msfontservice,arial" font-weight="400" font-size="17" transform="matrix(1,0,0,1.00015,561.539,24)">-</text><text font-family="calibri,calibri_msfontservice,arial" font-weight="400" font-size="17" direction="rtl" writing-mode="rl-tb" transform="matrix(1,0,0,1.00015,570.28,24)" x="24.3741">בלמ</text><text font-family="calibri,calibri_msfontservice,arial" font-weight="400" font-size="17" transform="matrix(1,0,0,1.00015,594.662,24)">"</text><text font-family="calibri,calibri_msfontservice,arial" font-weight="400" font-size="17" direction="rtl" writing-mode="rl-tb" transform="matrix(1,0,0,1.00015,605.07,24)" x="9.37467">ס</text><text font-family="calibri,calibri_msfontservice,arial" font-weight="400" font-size="17" transform="matrix(1,0,0,1.00015,614.453,24)">-</text><rect x="334.5" y="1733.75" width="470" height="133.019" stroke="#000000" stroke-width="1.24996" stroke-miterlimit="8" fill="#DBDBDB"/><text font-family="heebo,heebo_msfontservice,arial" font-weight="700" font-size="23" direction="rtl" writing-mode="rl-tb" transform="matrix(1,0,0,1.00015,420.628,1764)" x="303.739">שמירה על חום גופו של הפצוע</text><text font-family="heebo,heebo_msfontservice,arial" font-weight="700" font-size="23" direction="rtl" writing-mode="rl-tb" transform="matrix(1,0,0,1.00015,414.17,1764)" x="6.45811">!</text><path d=" M 75 23 L 176 23 L 277 23 L 378 23 L 378 25 L 277 25 L 176 25 L 75 25 Z" fill-rule="evenodd" transform="matrix(1,0,0,1.00015,346.089,1743.63)"/><text font-family="heebo,heebo_msfontservice,arial" font-weight="400" font-size="23" direction="rtl" writing-mode="rl-tb" transform="matrix(1,0,0,1.00015,782.074,1820)" x="9.99965">*</text><text font-family="heebo,heebo_msfontservice,arial" font-weight="400" font-size="23" direction="rtl" writing-mode="rl-tb" transform="matrix(1,0,0,1.00015,774.841,1820)" x="7.23308"></text><text font-family="heebo,heebo_msfontservice,arial" font-weight="400" font-size="23" direction="rtl" writing-mode="rl-tb" transform="matrix(1,0,0,1.00015,736.925,1820)" x="37.9153">מנת</text><text font-family="heebo,heebo_msfontservice,arial" font-weight="400" font-size="23" direction="rtl" writing-mode="rl-tb" transform="matrix(1,0,0,1.00015,729.692,1820)" x="7.23308"></text><text font-family="heebo,heebo_msfontservice,arial" font-weight="400" font-size="23" direction="rtl" writing-mode="rl-tb" transform="matrix(1,0,0,1.00015,653.653,1820)" x="76.039">הארטמן</text><text font-family="heebo,heebo_msfontservice,arial" font-weight="400" font-size="23" direction="rtl" writing-mode="rl-tb" transform="matrix(1,0,0,1.00015,646.412,1820)" x="7.24141"></text><text font-family="heebo,heebo_msfontservice,arial" font-weight="400" font-size="23" direction="rtl" writing-mode="rl-tb" transform="matrix(1,0,0,1.00015,594.955,1820)" x="51.4565">תינתן</text><text font-family="heebo,heebo_msfontservice,arial" font-weight="400" font-size="23" transform="matrix(1,0,0,1.00015,587.714,1820)"></text><text font-family="heebo,heebo_msfontservice,arial" font-weight="400" font-size="23" direction="rtl" writing-mode="rl-tb" transform="matrix(1,0,0,1.00015,561.673,1820)" x="26.0408">רק</text><text font-family="heebo,heebo_msfontservice,arial" font-weight="400" font-size="23" direction="rtl" writing-mode="rl-tb" transform="matrix(1,0,0,1.00015,554.432,1820)" x="7.24141"></text><text font-family="heebo,heebo_msfontservice,arial" font-weight="400" font-size="23" direction="rtl" writing-mode="rl-tb" transform="matrix(1,0,0,1.00015,496.934,1820)" x="57.498">כאשר</text><text font-family="heebo,heebo_msfontservice,arial" font-weight="400" font-size="23" direction="rtl" writing-mode="rl-tb" transform="matrix(1,0,0,1.00015,489.692,1820)" x="7.24141"></text><text font-family="heebo,heebo_msfontservice,arial" font-weight="400" font-size="23" direction="rtl" writing-mode="rl-tb" transform="matrix(1,0,0,1.00015,455.318,1820)" x="34.3738">צפי</text><text font-family="heebo,heebo_msfontservice,arial" font-weight="400" font-size="23" direction="rtl" writing-mode="rl-tb" transform="matrix(1,0,0,1.00015,448.077,1820)" x="7.24141"></text><text font-family="heebo,heebo_msfontservice,arial" font-weight="400" font-size="23" direction="rtl" writing-mode="rl-tb" transform="matrix(1,0,0,1.00015,384.329,1820)" x="63.7478">ההגעה</text><text font-family="heebo,heebo_msfontservice,arial" font-weight="400" font-size="23" direction="rtl" writing-mode="rl-tb" transform="matrix(1,0,0,1.00015,377.088,1820)" x="7.24141"></text><text font-family="heebo,heebo_msfontservice,arial" font-weight="400" font-size="23" direction="rtl" writing-mode="rl-tb" transform="matrix(1,0,0,1.00015,346.464,1820)" x="30.6239">של</text><text font-family="heebo,heebo_msfontservice,arial" font-weight="400" font-size="23" direction="rtl" writing-mode="rl-tb" transform="matrix(1,0,0,1.00015,340.631,1820)" x="5.83313"></text><text font-family="heebo,heebo_msfontservice,arial" font-weight="400" font-size="23" direction="rtl" writing-mode="rl-tb" transform="matrix(1,0,0,1.00015,751.033,1848)" x="41.0402">צוות</text><text font-family="heebo,heebo_msfontservice,arial" font-weight="400" font-size="23" direction="rtl" writing-mode="rl-tb" transform="matrix(1,0,0,1.00015,745.2,1848)" x="5.83313"></text><text font-family="heebo,heebo_msfontservice,arial" font-weight="400" font-size="23" direction="rtl" writing-mode="rl-tb" transform="matrix(1,0,0,1.00015,716.868,1848)" x="28.3323">עם</text><text font-family="heebo,heebo_msfontservice,arial" font-weight="400" font-size="23" direction="rtl" writing-mode="rl-tb" transform="matrix(1,0,0,1.00015,711.034,1848)" x="5.83313"></text><text font-family="heebo,heebo_msfontservice,arial" font-weight="400" font-size="23" direction="rtl" writing-mode="rl-tb" transform="matrix(1,0,0,1.00015,658.12,1848)" x="52.9148">מוצרי</text><text font-family="heebo,heebo_msfontservice,arial" font-weight="400" font-size="23" direction="rtl" writing-mode="rl-tb" transform="matrix(1,0,0,1.00015,652.286,1848)" x="5.83313"></text><text font-family="heebo,heebo_msfontservice,arial" font-weight="400" font-size="23" direction="rtl" writing-mode="rl-tb" transform="matrix(1,0,0,1.00015,625.412,1848)" x="26.8741">דם</text><text font-family="heebo,heebo_msfontservice,arial" font-weight="400" font-size="23" direction="rtl" writing-mode="rl-tb" transform="matrix(1,0,0,1.00015,619.579,1848)" x="5.83313"></text><text font-family="heebo,heebo_msfontservice,arial" font-weight="400" font-size="23" direction="rtl" writing-mode="rl-tb" transform="matrix(1,0,0,1.00015,583.331,1848)" x="36.2487">הינו</text><text font-family="heebo,heebo_msfontservice,arial" font-weight="400" font-size="23" direction="rtl" writing-mode="rl-tb" transform="matrix(1,0,0,1.00015,577.497,1848)" x="5.83313"></text><text font-family="heebo,heebo_msfontservice,arial" font-weight="400" font-size="23" direction="rtl" writing-mode="rl-tb" transform="matrix(1,0,0,1.00015,537.082,1848)" x="40.4152">מעל</text><text font-family="heebo,heebo_msfontservice,arial" font-weight="400" font-size="23" direction="rtl" writing-mode="rl-tb" transform="matrix(1,0,0,1.00015,531.249,1848)" x="5.83313"></text><text font-family="heebo,heebo_msfontservice,arial" font-weight="400" font-size="23" direction="rtl" writing-mode="rl-tb" transform="matrix(1,0,0,1.00015,519.166,1848)" x="12.0829">ל</text><text font-family="heebo,heebo_msfontservice,arial" font-weight="400" font-size="23" direction="rtl" writing-mode="rl-tb" transform="matrix(1,0,0,1.00015,512.708,1848)" x="6.45811">-</text><text font-family="heebo,heebo_msfontservice,arial" font-weight="400" font-size="23" direction="rtl" writing-mode="rl-tb" transform="matrix(1,0,0,1.00015,506.875,1848)" x="5.83313"></text><text font-family="heebo,heebo_msfontservice,arial" font-weight="400" font-size="23" transform="matrix(1,0,0,1.00015,480.634,1848)">15</text><text font-family="heebo,heebo_msfontservice,arial" font-weight="400" font-size="23" transform="matrix(1,0,0,1.00015,474.793,1848)"></text><text font-family="heebo,heebo_msfontservice,arial" font-weight="400" font-size="23" direction="rtl" writing-mode="rl-tb" transform="matrix(1,0,0,1.00015,426.669,1848)" x="48.1233">דקות</text><text font-family="heebo,heebo_msfontservice,arial" font-weight="400" font-size="23" direction="rtl" writing-mode="rl-tb" transform="matrix(1,0,0,1.00015,420.42,1848)" x="6.24978">.</text><text font-family="heebo,heebo_msfontservice,arial" font-weight="700" font-size="38" direction="rtl" writing-mode="rl-tb" transform="matrix(1,0,0,1.00015,168.527,161)" x="843.929">פרוטוקול החייאת בקרת נזקים בשדה בפצוע המדמם</text><text font-family="heebo,heebo_msfontservice,arial" font-weight="700" font-size="38" direction="rtl" writing-mode="rl-tb" transform="matrix(1,0,0,1.00015,764.648,203)" x="13.5412">(</text><text font-family="heebo,heebo_msfontservice,arial" font-weight="700" font-size="38" direction="rtl" writing-mode="rl-tb" transform="matrix(1,0,0,1.00015,514.24,203)" x="250.408">עדכון אוקטובר</text><text font-family="heebo,heebo_msfontservice,arial" font-weight="700" font-size="38" transform="matrix(1,0,0,1.00015,425.918,203)">2024</text><text font-family="heebo,heebo_msfontservice,arial" font-weight="700" font-size="38" direction="rtl" writing-mode="rl-tb" transform="matrix(1,0,0,1.00015,402.786,203)" x="23.1242">)</text><path d=" M 579 558.581 C 579 546.705 588.402 537.078 600 537.078 C 611.598 537.078 621 546.705 621 558.581 C 621 570.457 611.598 580.084 600 580.084 C 588.402 580.084 579 570.457 579 558.581 Z" stroke="#000000" stroke-width="1.66661" stroke-miterlimit="8" fill="#FF7C80" fill-rule="evenodd"/><text font-family="heebo,heebo_msfontservice,arial" font-weight="700" font-size="23" direction="rtl" writing-mode="rl-tb" transform="matrix(1,0,0,1.00015,586.062,565)" x="28.3323">לא</text><path d=" M 797.5 400.933 L 859.988 400.934 L 859.988 402.184 L 797.5 402.184 Z M 858.321 396.558 L 868.321 401.559 L 858.321 406.559 Z"/><path d=" M 790.5 1536.1 L 973.035 1536.1 L 973.035 1537.35 L 790.5 1537.35 Z M 971.368 1531.72 L 981.368 1536.72 L 971.368 1541.72 Z"/><path d=" M 575 1115.66 C 575 1103.79 584.402 1094.16 596 1094.16 C 607.598 1094.16 617 1103.79 617 1115.66 C 617 1127.54 607.598 1137.17 596 1137.17 C 584.402 1137.17 575 1127.54 575 1115.66 Z" stroke="#000000" stroke-width="1.66661" stroke-miterlimit="8" fill="#FFC000" fill-rule="evenodd"/><text font-family="heebo,heebo_msfontservice,arial" font-weight="700" font-size="23" direction="rtl" writing-mode="rl-tb" transform="matrix(1,0,0,1.00015,585.903,1122)" x="20.4159">כן</text><path d=" M 806 371.554 C 806 359.678 815.626 350.051 827.5 350.051 C 839.374 350.051 849 359.678 849 371.554 C 849 383.43 839.374 393.057 827.5 393.057 C 815.626 393.057 806 383.43 806 371.554 Z" stroke="#000000" stroke-width="1.66661" stroke-miterlimit="8" fill="#C5E0B4" fill-rule="evenodd"/><text font-family="heebo,heebo_msfontservice,arial" font-weight="700" font-size="23" direction="rtl" writing-mode="rl-tb" transform="matrix(1,0,0,1.00015,817.449,377)" x="20.4159">כן</text><path d=" M 973 1011.65 C 973 999.771 982.626 990.144 994.5 990.144 C 1006.37 990.144 1016 999.771 1016 1011.65 C 1016 1023.52 1006.37 1033.15 994.5 1033.15 C 982.626 1033.15 973 1023.52 973 1011.65 Z" stroke="#000000" stroke-width="1.66661" stroke-miterlimit="8" fill="#FF7C80" fill-rule="evenodd"/><text font-family="heebo,heebo_msfontservice,arial" font-weight="700" font-size="23" direction="rtl" writing-mode="rl-tb" transform="matrix(1,0,0,1.00015,980.313,1018)" x="28.3323">לא</text><path d=" M 951.5 1042.03 L 1043.93 1042.03 L 1043.93 1410.44 L 1042.68 1410.44 L 1042.68 1042.65 L 1043.3 1043.28 L 951.5 1043.28 Z M 1048.3 1408.78 L 1043.3 1418.78 L 1038.3 1408.78 Z"/><rect x="375.5" y="239.535" width="388" height="46.0068" stroke="#000000" stroke-width="1.24996" stroke-miterlimit="8" fill="#C5E0B4"/><text font-family="heebo,heebo_msfontservice,arial" font-weight="700" font-size="23" direction="rtl" writing-mode="rl-tb" transform="matrix(1,0,0,1.00015,421.002,268)" x="307.489">עצירת כל דימום הניתן לעצירה</text><text font-family="heebo,heebo_msfontservice,arial" font-weight="700" font-size="23" direction="rtl" writing-mode="rl-tb" transform="matrix(1,0,0,1.00015,414.544,268)" x="6.45811">!</text><path d=" M 328 401.559 L 365.75 326.047 L 759.25 326.047 L 797 401.559 L 759.25 477.069 L 365.75 477.069 Z" stroke="#172C51" stroke-width="1.66661" stroke-miterlimit="8" fill="#FFE699" fill-rule="evenodd"/><text font-family="heebo,heebo_msfontservice,arial" font-weight="700" font-size="23" direction="rtl" writing-mode="rl-tb" transform="matrix(1,0,0,1.00015,453.424,363)" x="230.2">פציעה שטחית בוודאות</text><text font-family="heebo,heebo_msfontservice,arial" font-weight="700" font-size="23" direction="rtl" writing-mode="rl-tb" transform="matrix(1,0,0,1.00015,441.758,363)" x="11.6663">?</text><path d=" M 74 25 L 150.667 25 L 227.333 25 L 304 25 L 304 27 L 227.333 27 L 150.667 27 L 74 27 Z" fill-rule="evenodd" transform="matrix(1,0,0,1.00015,379.61,341.339)"/><text font-family="heebo,heebo_msfontservice,arial" font-weight="400" font-size="23" direction="rtl" writing-mode="rl-tb" transform="matrix(1,0,0,1.00015,573.937,393)" x="171.661">ללא פציעה חודרת</text><text font-family="heebo,heebo_msfontservice,arial" font-weight="700" font-size="23" direction="rtl" writing-mode="rl-tb" transform="matrix(1,0,0,1.00015,712.265,423)" x="33.3322">וגם</text><text font-family="heebo,heebo_msfontservice,arial" font-weight="400" font-size="23" direction="rtl" writing-mode="rl-tb" transform="matrix(1,0,0,1.00015,706.432,423)" x="5.83313"></text><text font-family="heebo,heebo_msfontservice,arial" font-weight="400" font-size="23" direction="rtl" writing-mode="rl-tb" transform="matrix(1,0,0,1.00015,543.729,423)" x="162.703">ללא שינוי בהכרה</text><text font-family="heebo,heebo_msfontservice,arial" font-weight="700" font-size="23" direction="rtl" writing-mode="rl-tb" transform="matrix(1,0,0,1.00015,712.265,453)" x="33.3322">וגם</text><text font-family="heebo,heebo_msfontservice,arial" font-weight="400" font-size="23" direction="rtl" writing-mode="rl-tb" transform="matrix(1,0,0,1.00015,706.432,453)" x="5.83313"></text><text font-family="heebo,heebo_msfontservice,arial" font-weight="400" font-size="23" direction="rtl" writing-mode="rl-tb" transform="matrix(1,0,0,1.00015,443.525,453)" x="262.907">ללא מנגנון פציעה משמעותי</text><rect x="867.5" y="335.549" width="172" height="129.019" stroke="#000000" stroke-width="1.24996" stroke-miterlimit="8" fill="#C5E0B4"/><text font-family="heebo,heebo_msfontservice,arial" font-weight="400" font-size="23" direction="rtl" writing-mode="rl-tb" transform="matrix(1,0,0,1.00015,906.27,364)" x="87.4969">אין חובה</text><text font-family="heebo,heebo_msfontservice,arial" font-weight="400" font-size="23" direction="rtl" writing-mode="rl-tb" transform="matrix(1,0,0,1.00015,885.963,392)" x="128.12">בהשגת גישה</text><text font-family="heebo,heebo_msfontservice,arial" font-weight="400" font-size="23" direction="rtl" writing-mode="rl-tb" transform="matrix(1,0,0,1.00015,876.171,420)" x="147.703">למחזור הדם או</text><text font-family="heebo,heebo_msfontservice,arial" font-weight="400" font-size="23" direction="rtl" writing-mode="rl-tb" transform="matrix(1,0,0,1.00015,896.379,448)" x="107.288">בעירוי נפח</text><rect x="223.5" y="697.602" width="691" height="151.022" stroke="#000000" stroke-width="1.24996" stroke-miterlimit="8" fill="#BDD6EE"/><text font-family="heebo,heebo_msfontservice,arial" font-weight="700" font-size="23" direction="rtl" writing-mode="rl-tb" transform="matrix(1,0,0,1.00015,311.377,728)" x="521.44">השגת גישה למחזור הדם מבלי לעכב את פינוי הפצוע</text><text font-family="heebo,heebo_msfontservice,arial" font-weight="700" font-size="23" direction="rtl" writing-mode="rl-tb" transform="matrix(1,0,0,1.00015,304.919,728)" x="6.45811">!</text><path d=" M 76 25 L 206.25 25 L 336.5 25 L 466.75 25 L 597 25 L 597 27 L 466.75 27 L 336.5 27 L 206.25 27 L 76 27 Z" fill-rule="evenodd" transform="matrix(1,0,0,1.00015,235.421,705.999)"/><text font-family="heebo,heebo_msfontservice,arial" font-weight="400" font-size="23" direction="rtl" writing-mode="rl-tb" transform="matrix(1,0,0,1.00015,603.45,758)" x="269.782">במקרה של פציעה חודרת בגו</text><text font-family="heebo,heebo_msfontservice,arial" font-weight="400" font-size="23" direction="rtl" writing-mode="rl-tb" transform="matrix(1,0,0,1.00015,588.034,758)" x="15.4161">/</text><text font-family="heebo,heebo_msfontservice,arial" font-weight="400" font-size="23" direction="rtl" writing-mode="rl-tb" transform="matrix(1,0,0,1.00015,470.33,758)" x="117.704">באזור מעבר</text><text font-family="heebo,heebo_msfontservice,arial" font-weight="700" font-size="23" direction="rtl" writing-mode="rl-tb" transform="matrix(1,0,0,1.00015,431.164,758)" x="39.1653">וגם</text><text font-family="heebo,heebo_msfontservice,arial" font-weight="400" font-size="23" direction="rtl" writing-mode="rl-tb" transform="matrix(1,0,0,1.00015,284.086,758)" x="147.078">לא חלפו יותר מ</text><text font-family="heebo,heebo_msfontservice,arial" font-weight="400" font-size="23" direction="rtl" writing-mode="rl-tb" transform="matrix(1,0,0,1.00015,277.628,758)" x="6.45811">-</text><text font-family="heebo,heebo_msfontservice,arial" font-weight="400" font-size="23" transform="matrix(1,0,0,1.00015,264.512,758)">3</text><text font-family="heebo,heebo_msfontservice,arial" font-weight="400" font-size="23" direction="rtl" writing-mode="rl-tb" transform="matrix(1,0,0,1.00015,258.67,758)" x="5.83313"></text><text font-family="heebo,heebo_msfontservice,arial" font-weight="400" font-size="23" direction="rtl" writing-mode="rl-tb" transform="matrix(1,0,0,1.00015,625.532,788)" x="155.411">שעות מהפציעה</text><text font-family="heebo,heebo_msfontservice,arial" font-weight="400" font-size="23" direction="rtl" writing-mode="rl-tb" transform="matrix(1,0,0,1.00015,610.116,788)" x="15.4161">–</text><text font-family="heebo,heebo_msfontservice,arial" font-weight="400" font-size="23" direction="rtl" writing-mode="rl-tb" transform="matrix(1,0,0,1.00015,604.283,788)" x="5.83313"></text><text font-family="heebo,heebo_msfontservice,arial" font-weight="400" font-size="23" direction="rtl" writing-mode="rl-tb" transform="matrix(1,0,0,1.00015,562.41,788)" x="41.8735">מתן</text><text font-family="heebo,heebo_msfontservice,arial" font-weight="400" font-size="23" transform="matrix(1,0,0,1.00015,549.293,788)">1</text><text font-family="heebo,heebo_msfontservice,arial" font-weight="400" font-size="23" direction="rtl" writing-mode="rl-tb" transform="matrix(1,0,0,1.00015,543.452,788)" x="5.83313"></text><text font-family="heebo,heebo_msfontservice,arial" font-weight="400" font-size="23" direction="rtl" writing-mode="rl-tb" transform="matrix(1,0,0,1.00015,384.291,788)" x="159.161">גרם הקסאקפרון</text><text font-family="heebo,heebo_msfontservice,arial" font-weight="400" font-size="23" transform="matrix(1,0,0,1.00015,363.05,788)">IV</text><text font-family="heebo,heebo_msfontservice,arial" font-weight="400" font-size="23" direction="rtl" writing-mode="rl-tb" transform="matrix(1,0,0,1.00015,356.792,788)" x="6.24978">.</text><text font-family="heebo,heebo_msfontservice,arial" font-weight="700" font-size="23" direction="rtl" writing-mode="rl-tb" transform="matrix(1,0,0,1.00015,350.959,788)" x="5.83313"></text><text font-family="heebo,heebo_msfontservice,arial" font-weight="700" font-size="23" direction="rtl" writing-mode="rl-tb" transform="matrix(1,0,0,1.00015,660.115,831)" x="202.701">מתן נפח קודם למתן</text><text font-family="heebo,heebo_msfontservice,arial" font-weight="700" font-size="23" direction="rtl" writing-mode="rl-tb" transform="matrix(1,0,0,1.00015,542.202,831)" x="117.913">הקסאקפרון</text><text font-family="heebo,heebo_msfontservice,arial" font-weight="700" font-size="23" direction="rtl" writing-mode="rl-tb" transform="matrix(1,0,0,1.00015,536.369,831)" x="5.83313"></text><text font-family="heebo,heebo_msfontservice,arial" font-weight="700" font-size="23" direction="rtl" writing-mode="rl-tb" transform="matrix(1,0,0,1.00015,528.036,831)" x="8.33304">(</text><text font-family="heebo,heebo_msfontservice,arial" font-weight="700" font-size="23" direction="rtl" writing-mode="rl-tb" transform="matrix(1,0,0,1.00015,295.336,831)" x="232.7">במקרים בהם נדרש נפח</text><text font-family="heebo,heebo_msfontservice,arial" font-weight="700" font-size="23" direction="rtl" writing-mode="rl-tb" transform="matrix(1,0,0,1.00015,287.211,831)" x="8.12471">)</text><text font-family="heebo,heebo_msfontservice,arial" font-weight="700" font-size="23" direction="rtl" writing-mode="rl-tb" transform="matrix(1,0,0,1.00015,274.92,831)" x="6.45811">!</text><path d=" M 52 25 L 195.75 25 L 339.5 25 L 483.25 25 L 627 25 L 627 27 L 483.25 27 L 339.5 27 L 195.75 27 L 52 27 Z" fill-rule="evenodd" transform="matrix(1,0,0,1.00015,235.421,809.014)"/><path d=" M 190 1041.65 L 260.75 900.131 L 880.251 900.131 L 951 1041.65 L 880.251 1183.17 L 260.75 1183.17 Z" stroke="#172C51" stroke-width="1.66661" stroke-miterlimit="8" fill="#FFE699" fill-rule="evenodd"/><text font-family="heebo,heebo_msfontservice,arial" font-weight="700" font-size="23" direction="rtl" writing-mode="rl-tb" transform="matrix(1,0,0,1.00015,458.059,938)" x="237.075">האם הפצוע בהלם עמוק</text><text font-family="heebo,heebo_msfontservice,arial" font-weight="700" font-size="23" direction="rtl" writing-mode="rl-tb" transform="matrix(1,0,0,1.00015,446.393,938)" x="11.6663">?</text><path d=" M 181 25 L 299.5 25 L 418 25 L 418 27 L 299.5 27 L 181 27 Z" fill-rule="evenodd" transform="matrix(1,0,0,1.00015,277.207,915.582)"/><text font-family="heebo,heebo_msfontservice,arial" font-weight="700" font-size="23" transform="matrix(1,0,0,1.00015,766.698,981)">.1</text><text font-family="heebo,heebo_msfontservice,arial" font-weight="700" font-size="23" direction="rtl" writing-mode="rl-tb" transform="matrix(1,0,0,1.00015,507.324,981)" x="234.575">לחץ דם סיסטולי נמוך מ</text><text font-family="heebo,heebo_msfontservice,arial" font-weight="700" font-size="23" direction="rtl" writing-mode="rl-tb" transform="matrix(1,0,0,1.00015,497.949,981)" x="9.37467">-</text><text font-family="heebo,heebo_msfontservice,arial" font-weight="700" font-size="23" transform="matrix(1,0,0,1.00015,471.292,981)">90</text><text font-family="heebo,heebo_msfontservice,arial" font-weight="700" font-size="23" direction="rtl" writing-mode="rl-tb" transform="matrix(1,0,0,1.00015,465.45,981)" x="5.83313"></text><text font-family="heebo,heebo_msfontservice,arial" font-weight="700" font-size="23" direction="rtl" writing-mode="rl-tb" transform="matrix(1,0,0,1.00015,450.034,981)" x="15.4161">מ</text><text font-family="heebo,heebo_msfontservice,arial" font-weight="700" font-size="23" direction="rtl" writing-mode="rl-tb" transform="matrix(1,0,0,1.00015,442.534,981)" x="7.49974">"</text><text font-family="heebo,heebo_msfontservice,arial" font-weight="700" font-size="23" direction="rtl" writing-mode="rl-tb" transform="matrix(1,0,0,1.00015,348.788,981)" x="93.7467">מ כספית</text><text font-family="heebo,heebo_msfontservice,arial" font-weight="700" font-size="23" direction="rtl" writing-mode="rl-tb" transform="matrix(1,0,0,1.00015,559.197,1011)" x="23.1242">או</text><text font-family="heebo,heebo_msfontservice,arial" font-weight="700" font-size="23" transform="matrix(1,0,0,1.00015,702.85,1041)">.2</text><text font-family="heebo,heebo_msfontservice,arial" font-weight="700" font-size="23" direction="rtl" writing-mode="rl-tb" transform="matrix(1,0,0,1.00015,672.218,1041)" x="5.83313"></text><text font-family="heebo,heebo_msfontservice,arial" font-weight="400" font-size="23" direction="rtl" writing-mode="rl-tb" transform="matrix(1,0,0,1.00015,412.644,1041)" x="259.574">לחץ דם שאינו ניתן למדידה</text><text font-family="heebo,heebo_msfontservice,arial" font-weight="700" font-size="23" direction="rtl" writing-mode="rl-tb" transform="matrix(1,0,0,1.00015,548.264,1071)" x="39.1653">וגם</text><text font-family="heebo,heebo_msfontservice,arial" font-weight="400" font-size="23" direction="rtl" writing-mode="rl-tb" transform="matrix(1,0,0,1.00015,660.552,1101)" x="14.9995">א</text><text font-family="heebo,heebo_msfontservice,arial" font-weight="400" font-size="23" direction="rtl" writing-mode="rl-tb" transform="matrix(1,0,0,1.00015,648.469,1101)" x="12.0829">.</text><text font-family="heebo,heebo_msfontservice,arial" font-weight="400" font-size="23" direction="rtl" writing-mode="rl-tb" transform="matrix(1,0,0,1.00015,465.975,1101)" x="182.494">היעדר דופק רדיאלי</text><text font-family="heebo,heebo_msfontservice,arial" font-weight="700" font-size="23" direction="rtl" writing-mode="rl-tb" transform="matrix(1,0,0,1.00015,579.404,1131)" x="5.83313"></text><text font-family="heebo,heebo_msfontservice,arial" font-weight="700" font-size="23" direction="rtl" writing-mode="rl-tb" transform="matrix(1,0,0,1.00015,556.28,1131)" x="23.1242">או</text><text font-family="heebo,heebo_msfontservice,arial" font-weight="400" font-size="23" direction="rtl" writing-mode="rl-tb" transform="matrix(1,0,0,1.00015,843.253,1161)" x="12.2912">ב</text><text font-family="heebo,heebo_msfontservice,arial" font-weight="400" font-size="23" direction="rtl" writing-mode="rl-tb" transform="matrix(1,0,0,1.00015,831.171,1161)" x="12.0829">.</text><text font-family="heebo,heebo_msfontservice,arial" font-weight="400" font-size="23" direction="rtl" writing-mode="rl-tb" transform="matrix(1,0,0,1.00015,647.219,1161)" x="183.952">שינוי ברמת ההכרה</text><text font-family="heebo,heebo_msfontservice,arial" font-weight="400" font-size="23" direction="rtl" writing-mode="rl-tb" transform="matrix(1,0,0,1.00015,639.094,1161)" x="8.12471">(</text><text font-family="heebo,heebo_msfontservice,arial" font-weight="400" font-size="23" direction="rtl" writing-mode="rl-tb" transform="matrix(1,0,0,1.00015,293.898,1161)" x="345.196">שאינו על רקע חבלת ראש או תרופות</text><text font-family="heebo,heebo_msfontservice,arial" font-weight="400" font-size="23" direction="rtl" writing-mode="rl-tb" transform="matrix(1,0,0,1.00015,280.148,1161)" x="13.7495">)</text><rect x="190.5" y="1237.68" width="761" height="201.029" stroke="#000000" stroke-width="1.24996" stroke-miterlimit="8" fill="#BDD6EE"/><text font-family="heebo,heebo_msfontservice,arial" font-weight="700" font-size="23" direction="rtl" writing-mode="rl-tb" transform="matrix(1,0,0,1.00015,517.068,1278)" x="101.455">החזר נפח</text><path d=" M 321 25 L 416 25 L 416 27 L 321 27 Z" fill-rule="evenodd" transform="matrix(1,0,0,1.00015,202.163,1256.25)"/><text font-family="heebo,heebo_msfontservice,arial" font-weight="700" font-size="23" direction="rtl" writing-mode="rl-tb" transform="matrix(1,0,0,1.00015,768.934,1321)" x="170.202">אפשרות ראשונה</text><text font-family="heebo,heebo_msfontservice,arial" font-weight="700" font-size="23" direction="rtl" writing-mode="rl-tb" transform="matrix(1,0,0,1.00015,762.268,1321)" x="6.66643">:</text><text font-family="heebo,heebo_msfontservice,arial" font-weight="400" font-size="23" direction="rtl" writing-mode="rl-tb" transform="matrix(1,0,0,1.00015,756.435,1321)" x="5.83313"></text><text font-family="heebo,heebo_msfontservice,arial" font-weight="400" font-size="23" direction="rtl" writing-mode="rl-tb" transform="matrix(1,0,0,1.00015,449.362,1321)" x="307.073">מנת מוצרי דם על פי סדר עדיפות</text><text font-family="heebo,heebo_msfontservice,arial" font-weight="400" font-size="23" direction="rtl" writing-mode="rl-tb" transform="matrix(1,0,0,1.00015,429.78,1321)" x="19.5826">: (</text><text font-family="heebo,heebo_msfontservice,arial" font-weight="400" font-size="23" transform="matrix(1,0,0,1.00015,416.663,1321)">1</text><text font-family="heebo,heebo_msfontservice,arial" font-weight="400" font-size="23" direction="rtl" writing-mode="rl-tb" transform="matrix(1,0,0,1.00015,402.905,1321)" x="13.7495">)</text><text font-family="heebo,heebo_msfontservice,arial" font-weight="400" font-size="23" direction="rtl" writing-mode="rl-tb" transform="matrix(1,0,0,1.00015,322.492,1321)" x="80.4138">דם מלא</text><text font-family="heebo,heebo_msfontservice,arial" font-weight="400" font-size="23" direction="rtl" writing-mode="rl-tb" transform="matrix(1,0,0,1.00015,314.367,1321)" x="8.12471">(</text><text font-family="heebo,heebo_msfontservice,arial" font-weight="400" font-size="23" transform="matrix(1,0,0,1.00015,301.251,1321)">2</text><text font-family="heebo,heebo_msfontservice,arial" font-weight="400" font-size="23" direction="rtl" writing-mode="rl-tb" transform="matrix(1,0,0,1.00015,287.493,1321)" x="13.7495">)</text><text font-family="heebo,heebo_msfontservice,arial" font-weight="400" font-size="23" direction="rtl" writing-mode="rl-tb" transform="matrix(1,0,0,1.00015,243.744,1321)" x="43.7485">מנת</text><path d=" M 567 25 L 737 25 L 737 27 L 567 27 Z" fill-rule="evenodd" transform="matrix(1,0,0,1.00015,202.163,1299.25)"/><text font-family="heebo,heebo_msfontservice,arial" font-weight="400" font-size="23" direction="rtl" writing-mode="rl-tb" transform="matrix(1,0,0,1.00015,783.309,1351)" x="155.828">פלסמה מיובשת</text><text font-family="heebo,heebo_msfontservice,arial" font-weight="400" font-size="23" transform="matrix(1,0,0,1.00015,740.194,1351)">FDP</text><text font-family="heebo,heebo_msfontservice,arial" font-weight="400" font-size="23" direction="rtl" writing-mode="rl-tb" transform="matrix(1,0,0,1.00015,734.352,1351)" x="5.83313"></text><text font-family="heebo,heebo_msfontservice,arial" font-weight="400" font-size="23" direction="rtl" writing-mode="rl-tb" transform="matrix(1,0,0,1.00015,470.403,1351)" x="263.949">עם מנת כדוריות דם אדומות</text><text font-family="heebo,heebo_msfontservice,arial" font-weight="400" font-size="23" transform="matrix(1,0,0,1.00015,411.455,1351)">PRBC</text><text font-family="heebo,heebo_msfontservice,arial" font-weight="400" font-size="23" direction="rtl" writing-mode="rl-tb" transform="matrix(1,0,0,1.00015,405.614,1351)" x="5.83313"></text><text font-family="heebo,heebo_msfontservice,arial" font-weight="400" font-size="23" direction="rtl" writing-mode="rl-tb" transform="matrix(1,0,0,1.00015,397.489,1351)" x="8.12471">(</text><text font-family="heebo,heebo_msfontservice,arial" font-weight="400" font-size="23" transform="matrix(1,0,0,1.00015,384.373,1351)">3</text><text font-family="heebo,heebo_msfontservice,arial" font-weight="400" font-size="23" direction="rtl" writing-mode="rl-tb" transform="matrix(1,0,0,1.00015,370.615,1351)" x="13.7495">)</text><text font-family="heebo,heebo_msfontservice,arial" font-weight="400" font-size="23" direction="rtl" writing-mode="rl-tb" transform="matrix(1,0,0,1.00015,214.787,1351)" x="155.828">פלסמה מיובשת</text><text font-family="heebo,heebo_msfontservice,arial" font-weight="400" font-size="23" transform="matrix(1,0,0,1.00015,896.021,1381)">FDP</text><text font-family="heebo,heebo_msfontservice,arial" font-weight="400" font-size="23" direction="rtl" writing-mode="rl-tb" transform="matrix(1,0,0,1.00015,883.93,1381)" x="12.0829">.</text><text font-family="heebo,heebo_msfontservice,arial" font-weight="400" font-size="23" direction="rtl" writing-mode="rl-tb" transform="matrix(1,0,0,1.00015,658.521,1381)" x="225.409">ניטור אחר תופעות לוואי</text><text font-family="heebo,heebo_msfontservice,arial" font-weight="400" font-size="23" direction="rtl" writing-mode="rl-tb" transform="matrix(1,0,0,1.00015,652.272,1381)" x="6.24978">.</text><text font-family="heebo,heebo_msfontservice,arial" font-weight="700" font-size="23" direction="rtl" writing-mode="rl-tb" transform="matrix(1,0,0,1.00015,795.6,1411)" x="143.537">אפשרות שניה</text><text font-family="heebo,heebo_msfontservice,arial" font-weight="700" font-size="23" direction="rtl" writing-mode="rl-tb" transform="matrix(1,0,0,1.00015,783.1,1411)" x="12.4996">:</text><text font-family="heebo,heebo_msfontservice,arial" font-weight="400" font-size="23" direction="rtl" writing-mode="rl-tb" transform="matrix(1,0,0,1.00015,622.689,1411)" x="160.411">בהעדר מוצרי דם</text><text font-family="heebo,heebo_msfontservice,arial" font-weight="400" font-size="23" direction="rtl" writing-mode="rl-tb" transform="matrix(1,0,0,1.00015,616.231,1411)" x="6.45811">-</text><text font-family="heebo,heebo_msfontservice,arial" font-weight="400" font-size="23" direction="rtl" writing-mode="rl-tb" transform="matrix(1,0,0,1.00015,610.398,1411)" x="5.83313"></text><text font-family="heebo,heebo_msfontservice,arial" font-weight="400" font-size="23" direction="rtl" writing-mode="rl-tb" transform="matrix(1,0,0,1.00015,489.152,1411)" x="121.246">מתן מנה של</text><text font-family="heebo,heebo_msfontservice,arial" font-weight="400" font-size="23" transform="matrix(1,0,0,1.00015,449.787,1411)">500</text><text font-family="heebo,heebo_msfontservice,arial" font-weight="400" font-size="23" direction="rtl" writing-mode="rl-tb" transform="matrix(1,0,0,1.00015,443.946,1411)" x="5.83313"></text><text font-family="heebo,heebo_msfontservice,arial" font-weight="400" font-size="23" direction="rtl" writing-mode="rl-tb" transform="matrix(1,0,0,1.00015,429.155,1411)" x="14.7911">מ</text><text font-family="heebo,heebo_msfontservice,arial" font-weight="400" font-size="23" direction="rtl" writing-mode="rl-tb" transform="matrix(1,0,0,1.00015,421.655,1411)" x="7.49974">"</text><text font-family="heebo,heebo_msfontservice,arial" font-weight="400" font-size="23" direction="rtl" writing-mode="rl-tb" transform="matrix(1,0,0,1.00015,321.867,1411)" x="99.7882">ל הארטמן</text><text font-family="heebo,heebo_msfontservice,arial" font-weight="400" font-size="23" direction="rtl" writing-mode="rl-tb" transform="matrix(1,0,0,1.00015,305.617,1411)" x="16.2494">*.</text><path d=" M 593 25 L 737 25 L 737 27 L 593 27 Z" fill-rule="evenodd" transform="matrix(1,0,0,1.00015,202.163,1389.27)"/><path d=" M 344 1536.22 L 369 1486.22 L 765 1486.22 L 790 1536.22 L 765 1586.23 L 369 1586.23 Z" stroke="#172C51" stroke-width="1.66661" stroke-miterlimit="8" fill="#FFE699" fill-rule="evenodd"/><text font-family="heebo,heebo_msfontservice,arial" font-weight="700" font-size="23" direction="rtl" writing-mode="rl-tb" transform="matrix(1,0,0,1.00015,399.253,1528)" x="329.78">הערכה וחזרה על מדדים בתום כל</text><path d=" M 15 25 L 96 25 L 177 25 L 258 25 L 339 25 L 339 27 L 258 27 L 177 27 L 96 27 L 15 27 Z" fill-rule="evenodd" transform="matrix(1,0,0,1.00015,389.67,1506.41)"/><text font-family="heebo,heebo_msfontservice,arial" font-weight="700" font-size="23" direction="rtl" writing-mode="rl-tb" transform="matrix(1,0,0,1.00015,653.519,1558)" x="91.0385">מנת נפח</text><text font-family="heebo,heebo_msfontservice,arial" font-weight="700" font-size="23" direction="rtl" writing-mode="rl-tb" transform="matrix(1,0,0,1.00015,644.144,1558)" x="9.37467">-</text><text font-family="heebo,heebo_msfontservice,arial" font-weight="700" font-size="23" direction="rtl" writing-mode="rl-tb" transform="matrix(1,0,0,1.00015,638.311,1558)" x="5.83313"></text><text font-family="heebo,heebo_msfontservice,arial" font-weight="700" font-size="23" direction="rtl" writing-mode="rl-tb" transform="matrix(1,0,0,1.00015,401.236,1558)" x="237.075">האם הפצוע בהלם עמוק</text><text font-family="heebo,heebo_msfontservice,arial" font-weight="700" font-size="23" direction="rtl" writing-mode="rl-tb" transform="matrix(1,0,0,1.00015,389.57,1558)" x="11.6663">?</text><path d=" M 13 25 L 98.5 25 L 184 25 L 269.5 25 L 355 25 L 355 27 L 269.5 27 L 184 27 L 98.5 27 L 13 27 Z" fill-rule="evenodd" transform="matrix(1,0,0,1.00015,389.67,1536.42)"/><rect x="981.5" y="1418.71" width="124" height="218.032" stroke="#000000" stroke-width="1.24996" stroke-miterlimit="8" fill="#C5E0B4"/><text font-family="heebo,heebo_msfontservice,arial" font-weight="700" font-size="23" direction="rtl" writing-mode="rl-tb" transform="matrix(1,0,0,1.00015,999.151,1459)" x="81.2471">הפסקת</text><path d=" M 12 25 L 31 25 L 50 25 L 69 25 L 88 25 L 88 27 L 69 27 L 50 27 L 31 27 L 12 27 Z" fill-rule="evenodd" transform="matrix(1,0,0,1.00015,992.793,1437.32)"/><text font-family="heebo,heebo_msfontservice,arial" font-weight="700" font-size="23" direction="rtl" writing-mode="rl-tb" transform="matrix(1,0,0,1.00015,998.735,1489)" x="82.0805">החייאת</text><path d=" M 12 25 L 31 25 L 50 25 L 69 25 L 88 25 L 88 27 L 69 27 L 50 27 L 31 27 L 12 27 Z" fill-rule="evenodd" transform="matrix(1,0,0,1.00015,992.793,1467.32)"/><text font-family="heebo,heebo_msfontservice,arial" font-weight="700" font-size="23" direction="rtl" writing-mode="rl-tb" transform="matrix(1,0,0,1.00015,1011.54,1519)" x="62.2895">נוזלים</text><path d=" M 19 25 L 39.6667 25 L 60.3333 25 L 81 25 L 81 27 L 60.3333 27 L 39.6667 27 L 19 27 Z" fill-rule="evenodd" transform="matrix(1,0,0,1.00015,992.793,1497.33)"/><text font-family="heebo,heebo_msfontservice,arial" font-weight="400" font-size="23" direction="rtl" writing-mode="rl-tb" transform="matrix(1,0,0,1.00015,1072.27,1549)" x="5.83313"></text><text font-family="heebo,heebo_msfontservice,arial" font-weight="400" font-size="23" direction="rtl" writing-mode="rl-tb" transform="matrix(1,0,0,1.00015,1001.44,1549)" x="70.8308">הערכה</text><text font-family="heebo,heebo_msfontservice,arial" font-weight="400" font-size="23" direction="rtl" writing-mode="rl-tb" transform="matrix(1,0,0,1.00015,991.86,1579)" x="95.83">מחדש כל</text><text font-family="heebo,heebo_msfontservice,arial" font-weight="400" font-size="23" transform="matrix(1,0,0,1.00015,1059.67,1609)">10</text><text font-family="heebo,heebo_msfontservice,arial" font-weight="400" font-size="23" direction="rtl" writing-mode="rl-tb" transform="matrix(1,0,0,1.00015,1053.83,1609)" x="5.83313"></text><text font-family="heebo,heebo_msfontservice,arial" font-weight="400" font-size="23" direction="rtl" writing-mode="rl-tb" transform="matrix(1,0,0,1.00015,1005.71,1609)" x="48.1233">דקות</text><text font-family="heebo,heebo_msfontservice,arial" font-weight="400" font-size="23" direction="rtl" writing-mode="rl-tb" transform="matrix(1,0,0,1.00015,999.46,1609)" x="6.24978">.</text><path d=" M 578 1634.24 C 578 1622.64 587.626 1613.23 599.5 1613.23 C 611.374 1613.23 621 1622.64 621 1634.24 C 621 1645.84 611.374 1655.24 599.5 1655.24 C 587.626 1655.24 578 1645.84 578 1634.24 Z" stroke="#000000" stroke-width="1.66661" stroke-miterlimit="8" fill="#C5E0B4" fill-rule="evenodd"/><text font-family="heebo,heebo_msfontservice,arial" font-weight="700" font-size="23" direction="rtl" writing-mode="rl-tb" transform="matrix(1,0,0,1.00015,589.241,1641)" x="20.4159">כן</text><path d=" M 859 1506.22 C 859 1494.62 868.402 1485.22 880 1485.22 C 891.598 1485.22 901 1494.62 901 1506.22 C 901 1517.82 891.598 1527.22 880 1527.22 C 868.402 1527.22 859 1517.82 859 1506.22 Z" stroke="#000000" stroke-width="1.66661" stroke-miterlimit="8" fill="#FF7C80" fill-rule="evenodd"/><text font-family="heebo,heebo_msfontservice,arial" font-weight="700" font-size="23" direction="rtl" writing-mode="rl-tb" transform="matrix(1,0,0,1.00015,865.854,1512)" x="28.3323">לא</text><rect x="468" y="1.00011" width="248" height="84.0123" fill="#FFFFFF"/><text font-family="heebo,heebo_msfontservice,arial" font-style="oblique" font-weight="400" font-size="23" direction="rtl" writing-mode="rl-tb" transform="matrix(1,0,0,1.00015,917.84,1572)" x="28.749">אין</text><text font-family="heebo,heebo_msfontservice,arial" font-style="oblique" font-weight="400" font-size="23" direction="rtl" writing-mode="rl-tb" transform="matrix(1,0,0,1.00015,912.007,1572)" x="5.83313"></text><text font-family="heebo,heebo_msfontservice,arial" font-style="oblique" font-weight="400" font-size="23" direction="rtl" writing-mode="rl-tb" transform="matrix(1,0,0,1.00015,871.383,1572)" x="40.6236">הלם</text><text font-family="heebo,heebo_msfontservice,arial" font-style="oblique" font-weight="400" font-size="23" direction="rtl" writing-mode="rl-tb" transform="matrix(1,0,0,1.00015,865.55,1572)" x="5.83313"></text><text font-family="heebo,heebo_msfontservice,arial" font-style="oblique" font-weight="400" font-size="23" direction="rtl" writing-mode="rl-tb" transform="matrix(1,0,0,1.00015,815.76,1572)" x="49.7899">עמוק</text><text font-family="heebo,heebo_msfontservice,arial" font-style="oblique" font-weight="400" font-size="23" direction="rtl" writing-mode="rl-tb" transform="matrix(1,0,0,1.00015,809.927,1572)" x="5.83313"></text><text font-family="heebo,heebo_msfontservice,arial" font-style="oblique" font-weight="400" font-size="23" direction="rtl" writing-mode="rl-tb" transform="matrix(1,0,0,1.00015,499.245,1630)" x="46.4567">עדיין</text><text font-family="heebo,heebo_msfontservice,arial" font-style="oblique" font-weight="400" font-size="23" direction="rtl" writing-mode="rl-tb" transform="matrix(1,0,0,1.00015,481.329,1630)" x="17.916"></text><text font-family="heebo,heebo_msfontservice,arial" font-style="oblique" font-weight="400" font-size="23" direction="rtl" writing-mode="rl-tb" transform="matrix(1,0,0,1.00015,428.414,1630)" x="52.9148">בהלם</text><text font-family="heebo,heebo_msfontservice,arial" font-style="oblique" font-weight="400" font-size="23" direction="rtl" writing-mode="rl-tb" transform="matrix(1,0,0,1.00015,422.581,1630)" x="5.83313"></text><text font-family="heebo,heebo_msfontservice,arial" font-style="oblique" font-weight="400" font-size="23" direction="rtl" writing-mode="rl-tb" transform="matrix(1,0,0,1.00015,495.912,1658)" x="49.7899">עמוק</text><text font-family="heebo,heebo_msfontservice,arial" font-style="oblique" font-weight="400" font-size="23" direction="rtl" writing-mode="rl-tb" transform="matrix(1,0,0,1.00015,490.079,1658)" x="5.83313"></text><path d=" M 582 1207.68 C 582 1197.46 590.73 1189.17 601.5 1189.17 C 612.27 1189.17 621 1197.46 621 1207.68 C 621 1217.89 612.27 1226.18 601.5 1226.18 C 590.73 1226.18 582 1217.89 582 1207.68 Z" stroke="#000000" stroke-width="1.66661" stroke-miterlimit="8" fill="#C5E0B4" fill-rule="evenodd"/><text font-family="heebo,heebo_msfontservice,arial" font-weight="700" font-size="23" direction="rtl" writing-mode="rl-tb" transform="matrix(1,0,0,1.00015,591.319,1214)" x="20.4159">כן</text><path d=" M 0.624978 -1.73605e-06 L 0.625086 38.9094 L -0.62487 38.9094 L -0.624978 1.73605e-06 Z M 4.99993 37.2428 L 0.000131229 47.2424 L -4.99972 37.2428 Z" transform="matrix(-1,0,0,1.00015,567.5,1439.71)"/><path d=" M 568.125 847.615 L 568.715 892.837 L 567.465 892.854 L 566.875 847.632 Z M 573.068 891.114 L 568.199 901.179 L 563.069 891.244 Z"/><path d=" M 568.125 1183.66 L 568.715 1228.89 L 567.465 1228.9 L 566.875 1183.68 Z M 573.068 1227.16 L 568.199 1237.23 L 563.069 1227.29 Z"/><path d=" M 569.125 478.564 L 571.1 689.461 L 569.85 689.473 L 567.875 478.576 Z M 575.459 687.754 L 570.553 697.801 L 565.46 687.847 Z"/><path d=" M 0 0 L 667.063 0.000131229" stroke="#000000" stroke-width="0.833304" stroke-miterlimit="8" stroke-dasharray="3.33322 2.49991" fill="none" fill-rule="evenodd" transform="matrix(-1,0,0,1.00015,904.563,602.588)"/><text font-family="heebo,heebo_msfontservice,arial" font-weight="400" font-size="23" direction="rtl" writing-mode="rl-tb" transform="matrix(1,0,0,1.00015,773.178,636)" x="117.496">סקר החייאה</text><path d=" M 0 0 L -0.362213 0 L -0.362213 117.998 L 431.26 117.998" stroke="#000000" stroke-width="1.24996" stroke-miterlimit="8" fill="none" fill-rule="evenodd" transform="matrix(-1,1.22482e-16,1.22465e-16,1.00015,567.76,1586.73)"/><path d=" M 132.875 1704.25 L 132.875 1337.07 L 182.001 1337.07 L 182.001 1338.32 L 133.5 1338.32 L 134.125 1337.69 L 134.125 1704.25 Z M 180.335 1332.69 L 190.334 1337.69 L 180.335 1342.7 Z"/><path d=" M 0 0 L 48.2776 0 L 48.2776 105.876" stroke="#000000" stroke-width="1.24996" stroke-miterlimit="8" fill="none" fill-rule="evenodd" transform="matrix(1.83697e-16,1.00015,1,-1.83724e-16,1043.5,1636.74)"/><path d=" M 0 -0.624978 L 815.213 -0.624978 L 815.213 558.474 L 792.737 558.474 L 792.737 557.224 L 814.588 557.224 L 813.963 557.849 L 813.963 0 L 814.588 0.624978 L 0 0.624978 Z M 794.404 562.849 L 784.404 557.849 L 794.404 552.849 Z" transform="matrix(-1.83697e-16,-1.00015,-1,1.83724e-16,1148.35,1685.15)"/></g></svg>