<svg width="64" height="57" viewBox="0 0 64 57" fill="none" xmlns="http://www.w3.org/2000/svg">
<g clip-path="url(#clip0_4_6)">
<path d="M44.7562 0.0140926C46.4768 0.215054 47.4807 2.11538 46.6346 3.51418C42.5112 7.60921 38.1602 11.535 33.8985 15.5172C31.8378 17.4422 29.78 19.384 27.7114 21.3081C24.1585 24.6134 21.4938 28.1479 15.9537 28.4282C4.4039 29.0125 -1.097 15.5957 7.84012 8.94543C13.2204 4.94206 20.4938 6.19455 24.7957 10.9172C26.9526 13.2846 23.7065 16.2532 21.1742 14.2744C20.3674 13.6434 19.7929 12.8527 18.8713 12.2966C14.7773 9.83037 9.22735 12.13 8.57442 16.6067C7.72149 22.4584 15.0949 25.9884 19.7752 22.067L42.6827 0.608164C43.0543 0.319061 43.57 0.0669773 44.0562 0.0140926C44.2229 -0.00441703 44.5915 -0.00529844 44.7562 0.0140926Z" fill="#FDE39F"/>
<path d="M50.405 6.52423C54.9059 6.2175 58.3922 8.98954 60.0166 12.6791C63.7891 21.2482 55.9687 30.0306 46.2031 28.192C42.7248 27.5371 40.9591 25.8985 38.5366 23.7188C37.7386 23.0013 35.0641 20.7282 34.6729 19.9948C33.4504 17.7041 36.4229 15.5155 38.568 17.0871C40.3728 18.6057 42.0385 20.4417 43.8483 21.9331C49.1305 26.2864 57.1706 22.1032 55.6991 15.6539C55.1461 13.2291 52.8726 10.4139 49.8501 11.4231C47.9766 12.048 46.4061 15.0387 44.6012 15.2149C42.5983 15.4106 41.1375 13.728 41.8659 11.9749C42.1414 11.3103 44.5316 9.15701 45.2208 8.59114C46.6571 7.41093 48.4766 6.65556 50.405 6.52423Z" fill="#FDE39F"/>
<path d="M60.6903 43.7955V41.6035C60.6903 41.5709 60.5334 41.2412 60.4903 41.1936C60.1971 40.871 59.3579 40.871 58.9677 40.9794C58.7168 41.5814 57.7756 45.9532 57.5148 46.126C57.4501 46.1692 57.4119 46.1701 57.3383 46.1789C56.9021 46.2309 55.1884 46.2362 54.7707 46.1727C54.6051 46.148 54.4217 46.0105 54.459 45.8378L55.9962 41.1998L56.0227 40.9265H54.7678C54.7031 40.9265 54.5805 40.7053 54.5668 40.626C54.5109 40.2972 54.5188 39.1866 54.5619 38.842C54.5874 38.6419 54.6825 38.5088 54.8962 38.4489C56.7815 38.5132 58.7903 38.3229 60.6618 38.4374C65.2265 38.7177 63.6873 42.8665 63.9628 45.7725L63.7853 46.1489H59.2324C59.1128 46.0669 59.0726 45.9576 59.056 45.8254C59.0285 45.6104 59.0305 44.1287 59.0873 44.0124C59.1011 43.985 59.303 43.7947 59.3197 43.7947H60.6912L60.6903 43.7955Z" fill="#FDE39F"/>
<path d="M25.5132 38.6728C25.9583 38.2762 27.9612 38.4128 28.5446 38.6129C29.7838 39.0368 30.0426 40.2355 30.1073 41.3311C30.322 44.9581 28.9367 46.5817 24.8819 46.2847C20.3751 45.9541 21.5545 41.7692 21.4064 38.8429C21.4162 38.6349 21.5682 38.4736 21.7908 38.441C22.0309 38.4066 24.0103 38.4119 24.1495 38.4657C24.2388 38.5 24.3995 38.6825 24.3878 38.7865C24.474 40.0998 24.2633 41.5541 24.3829 42.8498C24.4142 43.1909 24.4878 43.4025 24.8113 43.5884C25.4829 43.9754 26.8044 43.8987 26.8975 43.0129C26.9387 42.6233 26.9387 41.4589 26.7524 41.139C26.4122 40.5546 25.4779 41.3972 25.3309 40.7794C25.2711 40.5282 25.2799 39.3418 25.3172 39.058C25.3329 38.9346 25.4201 38.7548 25.5132 38.6719V38.6728Z" fill="#FDE39F"/>
<path d="M3.08025 38.4375C4.71258 38.3731 6.37824 38.5476 7.07725 40.1166C8.1939 42.6215 6.46745 45.2235 3.86945 46.0696C3.6371 46.1454 2.59692 46.4319 2.44104 46.3675C2.41163 46.3552 2.2783 46.2353 2.26065 46.2071C2.0636 45.8828 2.28418 44.3526 2.21752 43.8881C2.59104 43.3795 3.29495 43.4509 3.69004 42.9265C4.04004 42.462 4.21847 41.1778 3.44593 40.9953C2.52732 40.7776 1.294 41.0447 0.363623 40.9301C0.137156 40.9028 0.0685297 40.7759 0.0440203 40.5767C0.151862 39.4291 -0.0951932 38.0699 0.0440203 36.9479C0.0685297 36.7487 0.137156 36.6226 0.363623 36.5944C0.79793 36.5416 2.32928 36.5407 2.76261 36.5944C2.8577 36.6059 3.08025 36.7187 3.08025 36.7866V38.4375Z" fill="#FDE39F"/>
<path d="M32.0769 21.4597C34.4435 21.1944 35.9347 23.5822 34.4543 25.2877C34.0121 25.7972 31.9661 27.7468 31.4435 28.0703C29.0014 29.5793 26.1368 26.7359 28.0907 24.5288C28.5367 24.0255 30.8004 21.911 31.3181 21.6766C31.5426 21.5752 31.8288 21.4879 32.0769 21.4597Z" fill="#FDE39F"/>
<path d="M46.4777 40.8191C46.3875 40.7953 46.2355 40.5634 46.2179 40.4638C46.164 40.1465 46.1787 39.2343 46.212 38.8949C46.2326 38.6852 46.2787 38.5494 46.5032 38.4622L53.5089 38.4666C53.5442 38.4807 53.6982 38.6235 53.7129 38.6561C53.7717 38.7883 53.7727 40.3775 53.7276 40.5626C53.6364 40.9398 53.1168 40.7838 52.8188 40.8287C52.1952 42.4259 52.6874 44.2795 52.4874 45.9603C52.3786 46.0952 52.2599 46.1595 52.0815 46.1789C51.5374 46.2389 50.1796 46.2309 49.6247 46.1807C49.46 46.1657 49.3737 46.1551 49.2796 46.0141C49.2982 44.6691 49.1502 43.2147 49.2463 41.8732C49.2639 41.6282 49.3276 41.3215 49.3806 41.0782C49.3914 41.0297 49.5443 40.8199 49.3943 40.8199H46.4757L46.4777 40.8191Z" fill="#FDE39F"/>
<path d="M33.6485 38.4489C34.172 38.3423 36.0455 38.4057 36.6739 38.4348C41.917 38.6781 40.265 42.2522 40.5543 45.7708C40.5346 45.9762 40.4052 46.1498 40.1768 46.178C39.7072 46.2353 38.0729 46.2353 37.6023 46.178C37.42 46.156 37.2935 46.059 37.2818 45.8801C37.22 44.6206 37.3749 43.2826 37.2876 42.0327C37.2445 41.4131 37.1504 40.9169 36.3759 40.8217C35.8328 40.7556 33.8044 40.9257 33.5171 40.7661C33.4848 40.7476 33.42 40.6851 33.4053 40.6533C33.3514 40.5396 33.3416 38.9381 33.372 38.731C33.3946 38.5741 33.4779 38.4824 33.6504 38.448L33.6485 38.4489Z" fill="#FDE39F"/>
<path d="M42.1121 38.4489L44.9003 38.4384L45.2101 38.6922L45.2248 45.8272C45.2219 45.9824 45.0768 46.089 44.9474 46.1648L42.1004 46.1745L41.8043 45.9083L41.7769 38.842C41.7818 38.6543 41.917 38.4983 42.1112 38.4489H42.1121Z" fill="#FDE39F"/>
<path d="M17.0723 38.4489C17.9165 38.5062 18.9909 38.3334 19.8066 38.4348C19.9792 38.456 20.0458 38.5362 20.1527 38.6552V42.7114L19.9488 42.9009H16.9743C16.7978 42.7828 16.7567 42.6656 16.7371 42.4717C16.6224 41.3206 16.8292 40.0108 16.739 38.842C16.7439 38.6543 16.8792 38.4983 17.0733 38.4489H17.0723Z" fill="#FDE39F"/>
<path d="M41.8955 51.7503L41.6916 55.4849H39.9407C39.8083 55.4055 39.825 54.7956 39.8789 54.7242L40.6328 54.666L40.7289 54.5382C40.7485 53.6066 40.6573 52.6688 40.8455 51.7512C40.8191 51.7265 40.4191 51.7785 40.3005 51.7424C40.0818 51.6745 40.0897 51.0055 40.2612 50.9121C40.373 50.8504 42.5612 50.8627 42.8612 50.8839C43.6043 50.935 44.3876 51.2135 44.6857 51.8984C44.9229 52.444 44.9641 54.6264 44.8759 55.2451C44.8563 55.3817 44.8278 55.4567 44.667 55.4849C44.5063 55.5131 43.8131 55.5281 43.7347 55.3782C43.5828 54.503 43.8455 53.3977 43.6916 52.5498C43.6406 52.266 43.4445 52.0236 43.1749 51.8931C43.1249 51.8693 42.821 51.753 42.8014 51.753H41.8965L41.8955 51.7503Z" fill="#FDE39F"/>
<path d="M9.70486 36.598H11.6891L11.8303 36.8879C11.5656 37.9218 11.5568 39.1091 11.295 40.1289C11.2225 40.4127 11.0852 40.6304 10.7588 40.6604C10.2245 40.7097 8.75684 40.723 8.24214 40.6604C7.9196 40.6207 7.95783 40.4268 8.02254 40.1809C8.19508 39.526 9.02644 37.6133 9.37251 36.9955C9.46467 36.8307 9.548 36.7178 9.70388 36.5997L9.70486 36.598Z" fill="#FDE39F"/>
<path d="M13.6743 36.598H15.6586L15.7998 36.8879C15.5351 37.9218 15.5263 39.1091 15.2645 40.1289C15.192 40.4127 15.0547 40.6304 14.7283 40.6604C14.1939 40.7097 12.7263 40.723 12.2116 40.6604C11.8891 40.6207 11.9273 40.4268 11.992 40.1809C12.1646 39.526 12.9959 37.6133 13.342 36.9955C13.4342 36.8307 13.5175 36.7178 13.6734 36.5997L13.6743 36.598Z" fill="#FDE39F"/>
<path d="M7.58809 54.6317C8.40475 54.3787 9.70767 54.9446 10.1351 53.9891C10.3224 53.5696 10.3292 52.7084 10.1077 52.2968C9.66355 51.4691 8.34396 51.9768 7.58809 51.7371C7.48319 51.6401 7.48025 51.0646 7.56848 50.9597C7.6224 50.8945 7.69593 50.8909 7.77534 50.8812C8.15867 50.8345 9.06258 50.8557 9.46355 50.8909C10.6469 50.9941 11.2792 51.6666 11.3704 52.749C11.4782 54.0297 11.1586 55.3024 9.57237 55.469C9.20277 55.5078 8.05475 55.5413 7.7224 55.4822C7.66162 55.4716 7.60966 55.4549 7.56946 55.4082C7.48025 55.3024 7.48515 54.7277 7.58907 54.6308L7.58809 54.6317Z" fill="#FDE39F"/>
<path d="M58.8364 51.738C58.7325 51.6419 58.7276 51.0664 58.8168 50.9606L58.9698 50.8866C60.7442 51.0205 63.1775 50.2422 63.3736 52.5903C63.4971 54.0605 62.7226 55.0979 61.2011 55.499C60.9893 55.5545 60.6923 55.6964 60.6335 55.402C60.6099 55.2839 60.6129 54.8291 60.6619 54.7277C60.757 54.5321 61.6217 54.339 61.9413 53.9116C62.2609 53.4841 62.3589 52.3127 61.8785 51.9742C61.3129 51.5767 59.0982 51.9804 58.8364 51.7371V51.738Z" fill="#FDE39F"/>
<path d="M20.7075 51.7503H18.4605C18.2478 51.7503 18.2978 51.0223 18.3733 50.8848H22.4301C22.6124 50.8848 22.6134 51.5167 22.5467 51.6428C22.4438 51.8385 22.0624 51.6974 21.8742 51.7768C21.7713 51.8349 21.6742 52.2633 21.6585 52.3885C21.5428 53.2857 21.7703 54.3822 21.6448 55.2442C21.634 55.3156 21.5703 55.4849 21.4958 55.4849H20.6203C20.537 55.4373 20.5399 55.3773 20.5301 55.298C20.4438 54.6131 20.4634 52.9658 20.5301 52.2624C20.5487 52.0659 20.6036 51.9187 20.7075 51.7503Z" fill="#FDE39F"/>
<path d="M30.8426 50.8927C32.22 50.9571 34.4464 50.467 34.9915 52.0632C35.1758 52.6035 35.2111 54.6519 35.1268 55.2434C35.116 55.3192 35.1131 55.3835 35.0425 55.4355C34.9415 55.5095 34.0327 55.5686 33.969 55.3386C33.8709 54.4801 34.0602 53.4849 33.9572 52.6432C33.7906 51.2735 31.7818 51.9072 30.8014 51.7265L30.772 50.935L30.8426 50.8918V50.8927Z" fill="#FDE39F"/>
<path d="M4.42237 52.6979C4.34002 52.087 3.92042 51.7997 3.28611 51.7486C2.88416 51.716 1.50771 51.8305 1.27046 51.7239C1.09791 51.6463 1.06948 50.9624 1.31164 50.8954C2.42044 50.9571 4.29688 50.5842 5.08903 51.4841C5.2204 51.634 5.53216 52.2016 5.53216 52.3726V55.4029L5.44491 55.484H4.51061L4.42335 55.4029C4.341 54.5523 4.53512 53.5255 4.42335 52.697L4.42237 52.6979Z" fill="#FDE39F"/>
<path d="M27.5957 52.6979C27.5134 52.087 27.0938 51.7997 26.4595 51.7486C26.0575 51.716 24.6811 51.8305 24.4438 51.7239C24.2713 51.6463 24.2428 50.9624 24.485 50.8954C25.5938 50.9571 27.4702 50.5842 28.2624 51.4841C28.3937 51.634 28.7055 52.2016 28.7055 52.3726V55.4029L28.6182 55.484H27.6839L27.5967 55.4029C27.5143 54.5523 27.7085 53.5255 27.5967 52.697L27.5957 52.6979Z" fill="#FDE39F"/>
<path d="M53.0826 50.8936C53.2385 50.8451 54.5189 50.8653 54.7679 50.883C55.5836 50.9385 56.3453 51.1968 56.6316 51.9689C56.8316 52.5083 56.8669 54.6431 56.7816 55.2442C56.7708 55.32 56.7678 55.3843 56.6973 55.4363C56.5963 55.5104 55.6875 55.5694 55.6237 55.3394C55.5257 54.4809 55.7149 53.4858 55.612 52.644C55.5541 52.1663 55.1983 51.8367 54.6934 51.7644C54.3581 51.7159 53.2101 51.8164 53.0434 51.7247C52.8767 51.6331 52.865 50.9623 53.0826 50.8944V50.8936Z" fill="#FDE39F"/>
<path d="M15.6291 52.6432C15.4536 51.4365 14.0703 51.8596 13.2036 51.753C12.787 51.7018 12.888 50.9535 13.1017 50.8953C13.3154 50.8372 14.5536 50.8636 14.8399 50.8857C15.4046 50.928 16.0418 51.1263 16.3879 51.5617C16.4869 51.686 16.7379 52.191 16.7379 52.3188V55.4038L16.6506 55.4849H15.7163L15.6291 55.4038V52.6441V52.6432Z" fill="#FDE39F"/>
<path d="M58.8226 57C58.6873 55.6153 58.804 54.1989 58.7618 52.8036C58.7736 52.5877 58.8883 52.5771 59.0824 52.5595C59.3589 52.5348 59.9255 52.4775 59.9285 52.8098C59.8216 54.0376 60.0843 55.5051 59.9334 56.7039C59.9177 56.8255 59.8902 56.918 59.7863 57H58.8236H58.8226Z" fill="#FDE39F"/>
<path d="M1.31177 52.5735C1.48823 52.5251 2.24508 52.5057 2.30979 52.7084C2.24803 53.492 2.43332 54.4862 2.32449 55.2433C2.30979 55.3491 2.29018 55.439 2.16371 55.4734C1.98724 55.5219 1.23039 55.5412 1.16569 55.3385C1.22745 54.5549 1.04216 53.5607 1.15098 52.8036C1.16569 52.6978 1.1853 52.6079 1.31177 52.5735Z" fill="#FDE39F"/>
<path d="M24.4839 52.5735C24.6604 52.5251 25.4172 52.5057 25.4819 52.7084C25.4201 53.492 25.6054 54.4862 25.4966 55.2433C25.4819 55.3491 25.4623 55.439 25.3358 55.4734C25.1594 55.5219 24.4025 55.5412 24.3378 55.3385C24.3996 54.5549 24.2143 53.5607 24.3231 52.8036C24.3378 52.6978 24.3574 52.6079 24.4839 52.5735Z" fill="#FDE39F"/>
<path d="M30.8348 52.5621H31.7681L31.8564 52.6432V55.4037L31.7681 55.4848H30.8348L30.7476 55.4037V52.6432L30.8348 52.5621Z" fill="#FDE39F"/>
<path d="M46.8866 50.8848H47.8787L47.966 50.9659V53.5096L47.8787 53.5907H46.8866L46.7983 53.5096V50.9659L46.8866 50.8848Z" fill="#FDE39F"/>
<path d="M50.0384 50.8848H51.0306L51.1178 50.9659V53.5096L51.0306 53.5907H50.0384L49.9502 53.5096V50.9659L50.0384 50.8848Z" fill="#FDE39F"/>
</g>
<defs>
<clipPath id="clip0_4_6">
<rect width="64" height="57" fill="white"/>
</clipPath>
</defs>
</svg>
